<svg width="24" height="24" viewBox="0 0 24 24" fill="none" xmlns="http://www.w3.org/2000/svg">
<circle cx="12" cy="12" r="12" fill="#7BA7BF" fill-opacity="0.25"/>
<path fill-rule="evenodd" clip-rule="evenodd" d="M16.282 8.53202C16.3355 8.47864 16.3779 8.41525 16.4068 8.34548C16.4358 8.27571 16.4507 8.20092 16.4508 8.12538C16.4508 8.04984 16.436 7.97503 16.4071 7.90522C16.3782 7.83541 16.3359 7.77197 16.2825 7.71852C16.2291 7.66508 16.1658 7.62267 16.096 7.59371C16.0262 7.56476 15.9514 7.54984 15.8759 7.54979C15.8003 7.54975 15.7255 7.56458 15.6557 7.59344C15.5859 7.62231 15.5225 7.66464 15.469 7.71802L12 11.187L8.53202 7.71802C8.42408 7.61008 8.27768 7.54944 8.12502 7.54944C7.97237 7.54944 7.82597 7.61008 7.71802 7.71802C7.61008 7.82597 7.54944 7.97237 7.54944 8.12502C7.54944 8.27768 7.61008 8.42408 7.71802 8.53202L11.187 12L7.71802 15.468C7.66458 15.5215 7.62218 15.5849 7.59325 15.6548C7.56433 15.7246 7.54944 15.7994 7.54944 15.875C7.54944 15.9506 7.56433 16.0255 7.59325 16.0953C7.62218 16.1651 7.66458 16.2286 7.71802 16.282C7.82597 16.39 7.97237 16.4506 8.12502 16.4506C8.20061 16.4506 8.27546 16.4357 8.34529 16.4068C8.41512 16.3779 8.47858 16.3355 8.53202 16.282L12 12.813L15.469 16.282C15.577 16.3898 15.7233 16.4503 15.8759 16.4503C16.0284 16.4502 16.1747 16.3895 16.2825 16.2815C16.3903 16.1736 16.4508 16.0272 16.4508 15.8747C16.4507 15.7221 16.39 15.5758 16.282 15.468L12.813 12L16.282 8.53202Z" fill="#2B7BA6" fill-opacity="0.5"/>
</svg>
