<svg width="600" height="600" viewBox="0 0 600 600" fill="none" xmlns="http://www.w3.org/2000/svg">
<g clip-path="url(#clip0_735_6)">
<g clip-path="url(#clip1_735_6)">
<path d="M216 0H204C200.817 0 197.765 1.26428 195.515 3.51472C193.264 5.76515 192 8.8174 192 12C192 15.1826 193.264 18.2348 195.515 20.4853C197.765 22.7357 200.817 24 204 24H216V0Z" fill="black"/>
</g>
<g clip-path="url(#clip2_735_6)">
<path d="M216 24H228C231.183 24 234.235 22.7357 236.485 20.4853C238.736 18.2348 240 15.1826 240 12C240 8.8174 238.736 5.76515 236.485 3.51472C234.235 1.26428 231.183 0 228 0L216 0V24Z" fill="black"/>
</g>
<g clip-path="url(#clip3_735_6)">
<path d="M336 12C336 15.1826 337.264 18.2348 339.515 20.4853C341.765 22.7357 344.817 24 348 24C351.183 24 354.235 22.7357 356.485 20.4853C358.736 18.2348 360 15.1826 360 12C360 8.8174 358.736 5.76515 356.485 3.51472C354.235 1.26428 351.183 0 348 0C344.817 0 341.765 1.26428 339.515 3.51472C337.264 5.76515 336 8.8174 336 12Z" fill="black"/>
</g>
<g clip-path="url(#clip4_735_6)">
<path d="M384 12C384 15.1826 385.264 18.2348 387.515 20.4853C389.765 22.7357 392.817 24 396 24C399.183 24 402.235 22.7357 404.485 20.4853C406.736 18.2348 408 15.1826 408 12C408 8.8174 406.736 5.76515 404.485 3.51472C402.235 1.26428 399.183 0 396 0C392.817 0 389.765 1.26428 387.515 3.51472C385.264 5.76515 384 8.8174 384 12Z" fill="black"/>
</g>
<path d="M300 48H312V36C312 39.1826 310.736 42.2348 308.485 44.4853C306.235 46.7357 303.183 48 300 48Z" fill="black"/>
<g clip-path="url(#clip5_735_6)">
<path d="M336 48V36C336 32.8174 334.736 29.7652 332.485 27.5147C330.235 25.2643 327.183 24 324 24C320.817 24 317.765 25.2643 315.515 27.5147C313.264 29.7652 312 32.8174 312 36V48H336Z" fill="black"/>
</g>
<g clip-path="url(#clip6_735_6)">
<path d="M384 48V36C384 32.8174 382.736 29.7652 380.485 27.5147C378.235 25.2643 375.183 24 372 24C368.817 24 365.765 25.2643 363.515 27.5147C361.264 29.7652 360 32.8174 360 36V48H384Z" fill="black"/>
</g>
<g clip-path="url(#clip7_735_6)">
<path d="M384 36V48H396C392.817 48 389.765 46.7357 387.515 44.4853C385.264 42.2348 384 39.1826 384 36Z" fill="black"/>
</g>
<g clip-path="url(#clip8_735_6)">
<path d="M216 72V60C216 56.8174 214.736 53.7652 212.485 51.5147C210.235 49.2643 207.183 48 204 48C200.817 48 197.765 49.2643 195.515 51.5147C193.264 53.7652 192 56.8174 192 60V72H216Z" fill="black"/>
</g>
<path d="M216 60V72H228C224.817 72 221.765 70.7357 219.515 68.4853C217.264 66.2348 216 63.1826 216 60Z" fill="black"/>
<g clip-path="url(#clip9_735_6)">
<path d="M264 60V72H288V48H276C272.817 48 269.765 49.2643 267.515 51.5147C265.264 53.7652 264 56.8174 264 60Z" fill="black"/>
</g>
<g clip-path="url(#clip10_735_6)">
<path d="M312 48H288V72H312V48Z" fill="black"/>
</g>
<g clip-path="url(#clip11_735_6)">
<path d="M336 48H312V72H336V48Z" fill="black"/>
</g>
<g clip-path="url(#clip12_735_6)">
<path d="M384 48H360V72H384V48Z" fill="black"/>
</g>
<g clip-path="url(#clip13_735_6)">
<path d="M408 60V72H384V48H396C399.183 48 402.235 49.2643 404.485 51.5147C406.736 53.7652 408 56.8174 408 60Z" fill="black"/>
</g>
<g clip-path="url(#clip14_735_6)">
<path d="M216 72H192V96H216V72Z" fill="black"/>
</g>
<g clip-path="url(#clip15_735_6)">
<path d="M240 84V96H216V72H228C231.183 72 234.235 73.2643 236.485 75.5147C238.736 77.7652 240 80.8174 240 84Z" fill="black"/>
</g>
<path d="M252 96H264V84C264 87.1826 262.736 90.2348 260.485 92.4853C258.235 94.7357 255.183 96 252 96Z" fill="black"/>
<g clip-path="url(#clip16_735_6)">
<path d="M240 84V96H252C248.817 96 245.765 94.7357 243.515 92.4853C241.264 90.2348 240 87.1826 240 84Z" fill="black"/>
</g>
<g clip-path="url(#clip17_735_6)">
<path d="M288 72H264V96H288V72Z" fill="black"/>
</g>
<path d="M288 84V72H300C296.817 72 293.765 73.2643 291.515 75.5147C289.264 77.7652 288 80.8174 288 84Z" fill="black"/>
<g clip-path="url(#clip18_735_6)">
<path d="M312 84V72H300C303.183 72 306.235 73.2643 308.485 75.5147C310.736 77.7652 312 80.8174 312 84Z" fill="black"/>
</g>
<g clip-path="url(#clip19_735_6)">
<path d="M312 72V84C312 87.1826 313.264 90.2348 315.515 92.4853C317.765 94.7357 320.817 96 324 96C327.183 96 330.235 94.7357 332.485 92.4853C334.736 90.2348 336 87.1826 336 84V72H312Z" fill="black"/>
</g>
<g clip-path="url(#clip20_735_6)">
<path d="M372 96H384V72H360V84C360 87.1826 361.264 90.2348 363.515 92.4853C365.765 94.7357 368.817 96 372 96Z" fill="black"/>
</g>
<g clip-path="url(#clip21_735_6)">
<path d="M408 72H384V96H408V72Z" fill="black"/>
</g>
<g clip-path="url(#clip22_735_6)">
<path d="M204 120H216V96H192V108C192 111.183 193.264 114.235 195.515 116.485C197.765 118.736 200.817 120 204 120Z" fill="black"/>
</g>
<g clip-path="url(#clip23_735_6)">
<path d="M240 96H216V120H240V96Z" fill="black"/>
</g>
<g clip-path="url(#clip24_735_6)">
<path d="M264 96H240V120H264V96Z" fill="black"/>
</g>
<g clip-path="url(#clip25_735_6)">
<path d="M276 120H264V96H288V108C288 111.183 286.736 114.235 284.485 116.485C282.235 118.736 279.183 120 276 120Z" fill="black"/>
</g>
<g clip-path="url(#clip26_735_6)">
<path d="M360 120V108C360 104.817 358.736 101.765 356.485 99.5147C354.235 97.2643 351.183 96 348 96C344.817 96 341.765 97.2643 339.515 99.5147C337.264 101.765 336 104.817 336 108V120H360Z" fill="black"/>
</g>
<path d="M384 108V96H372C375.183 96 378.235 97.2643 380.485 99.5147C382.736 101.765 384 104.817 384 108Z" fill="black"/>
<g clip-path="url(#clip27_735_6)">
<path d="M408 96H384V120H408V96Z" fill="black"/>
</g>
<g clip-path="url(#clip28_735_6)">
<path d="M216 132V120H204C207.183 120 210.235 121.264 212.485 123.515C214.736 125.765 216 128.817 216 132Z" fill="black"/>
</g>
<g clip-path="url(#clip29_735_6)">
<path d="M216 120V132C216 135.183 217.264 138.235 219.515 140.485C221.765 142.736 224.817 144 228 144C231.183 144 234.235 142.736 236.485 140.485C238.736 138.235 240 135.183 240 132V120H216Z" fill="black"/>
</g>
<path d="M240 132V120H252C248.817 120 245.765 121.264 243.515 123.515C241.264 125.765 240 128.817 240 132Z" fill="black"/>
<g clip-path="url(#clip30_735_6)">
<path d="M312 144V132C312 128.817 310.736 125.765 308.485 123.515C306.235 121.264 303.183 120 300 120C296.817 120 293.765 121.264 291.515 123.515C289.264 125.765 288 128.817 288 132V144H312Z" fill="black"/>
</g>
<g clip-path="url(#clip31_735_6)">
<path d="M360 120H336V144H360V120Z" fill="black"/>
</g>
<g clip-path="url(#clip32_735_6)">
<path d="M408 120H384V144H408V120Z" fill="black"/>
</g>
<g clip-path="url(#clip33_735_6)">
<path d="M192 156C192 159.183 193.264 162.235 195.515 164.485C197.765 166.736 200.817 168 204 168C207.183 168 210.235 166.736 212.485 164.485C214.736 162.235 216 159.183 216 156C216 152.817 214.736 149.765 212.485 147.515C210.235 145.264 207.183 144 204 144C200.817 144 197.765 145.264 195.515 147.515C193.264 149.765 192 152.817 192 156Z" fill="black"/>
</g>
<g clip-path="url(#clip34_735_6)">
<path d="M240 156C240 159.183 241.264 162.235 243.515 164.485C245.765 166.736 248.817 168 252 168C255.183 168 258.235 166.736 260.485 164.485C262.736 162.235 264 159.183 264 156C264 152.817 262.736 149.765 260.485 147.515C258.235 145.264 255.183 144 252 144C248.817 144 245.765 145.264 243.515 147.515C241.264 149.765 240 152.817 240 156Z" fill="black"/>
</g>
<g clip-path="url(#clip35_735_6)">
<path d="M288 144V156C288 159.183 289.264 162.235 291.515 164.485C293.765 166.736 296.817 168 300 168C303.183 168 306.235 166.736 308.485 164.485C310.736 162.235 312 159.183 312 156V144H288Z" fill="black"/>
</g>
<g clip-path="url(#clip36_735_6)">
<path d="M360 144H336V168H360V144Z" fill="black"/>
</g>
<g clip-path="url(#clip37_735_6)">
<path d="M372 168H384V156C384 159.183 382.736 162.235 380.485 164.485C378.235 166.736 375.183 168 372 168Z" fill="black"/>
</g>
<g clip-path="url(#clip38_735_6)">
<path d="M360 156V168H372C368.817 168 365.765 166.736 363.515 164.485C361.264 162.235 360 159.183 360 156Z" fill="black"/>
</g>
<g clip-path="url(#clip39_735_6)">
<path d="M408 144H384V168H408V144Z" fill="black"/>
</g>
<g clip-path="url(#clip40_735_6)">
<path d="M216 180C216 183.183 217.264 186.235 219.515 188.485C221.765 190.736 224.817 192 228 192C231.183 192 234.235 190.736 236.485 188.485C238.736 186.235 240 183.183 240 180C240 176.817 238.736 173.765 236.485 171.515C234.235 169.264 231.183 168 228 168C224.817 168 221.765 169.264 219.515 171.515C217.264 173.765 216 176.817 216 180Z" fill="black"/>
</g>
<g clip-path="url(#clip41_735_6)">
<path d="M264 180C264 183.183 265.264 186.235 267.515 188.485C269.765 190.736 272.817 192 276 192C279.183 192 282.235 190.736 284.485 188.485C286.736 186.235 288 183.183 288 180C288 176.817 286.736 173.765 284.485 171.515C282.235 169.264 279.183 168 276 168C272.817 168 269.765 169.264 267.515 171.515C265.264 173.765 264 176.817 264 180Z" fill="black"/>
</g>
<g clip-path="url(#clip42_735_6)">
<path d="M324 192H336V180C336 183.183 334.736 186.235 332.485 188.485C330.235 190.736 327.183 192 324 192Z" fill="black"/>
</g>
<g clip-path="url(#clip43_735_6)">
<path d="M360 168H336V192H360V168Z" fill="black"/>
</g>
<g clip-path="url(#clip44_735_6)">
<path d="M384 168H360V192H384V168Z" fill="black"/>
</g>
<g clip-path="url(#clip45_735_6)">
<path d="M408 168H384V192H408V168Z" fill="black"/>
</g>
<g clip-path="url(#clip46_735_6)">
<path d="M408 180V192H420C416.817 192 413.765 190.736 411.515 188.485C409.264 186.235 408 183.183 408 180Z" fill="black"/>
</g>
<g clip-path="url(#clip47_735_6)">
<path d="M24 192H12C8.8174 192 5.76515 193.264 3.51472 195.515C1.26428 197.765 0 200.817 0 204C0 207.183 1.26428 210.235 3.51472 212.485C5.76515 214.736 8.8174 216 12 216H24V192Z" fill="black"/>
</g>
<g clip-path="url(#clip48_735_6)">
<path d="M48 192H24V216H48V192Z" fill="black"/>
</g>
<g clip-path="url(#clip49_735_6)">
<path d="M72 192H48V216H72V192Z" fill="black"/>
</g>
<g clip-path="url(#clip50_735_6)">
<path d="M72 216H84C87.1826 216 90.2348 214.736 92.4853 212.485C94.7357 210.235 96 207.183 96 204C96 200.817 94.7357 197.765 92.4853 195.515C90.2348 193.264 87.1826 192 84 192H72V216Z" fill="black"/>
</g>
<g clip-path="url(#clip51_735_6)">
<path d="M144 204C144 207.183 145.264 210.235 147.515 212.485C149.765 214.736 152.817 216 156 216C159.183 216 162.235 214.736 164.485 212.485C166.736 210.235 168 207.183 168 204C168 200.817 166.736 197.765 164.485 195.515C162.235 193.264 159.183 192 156 192C152.817 192 149.765 193.264 147.515 195.515C145.264 197.765 144 200.817 144 204Z" fill="black"/>
</g>
<g clip-path="url(#clip52_735_6)">
<path d="M216 216V204C216 200.817 214.736 197.765 212.485 195.515C210.235 193.264 207.183 192 204 192C200.817 192 197.765 193.264 195.515 195.515C193.264 197.765 192 200.817 192 204V216H216Z" fill="black"/>
</g>
<g clip-path="url(#clip53_735_6)">
<path d="M216 204V216H228C224.817 216 221.765 214.736 219.515 212.485C217.264 210.235 216 207.183 216 204Z" fill="black"/>
</g>
<g clip-path="url(#clip54_735_6)">
<path d="M336 192H324C320.817 192 317.765 193.264 315.515 195.515C313.264 197.765 312 200.817 312 204C312 207.183 313.264 210.235 315.515 212.485C317.765 214.736 320.817 216 324 216H336V192Z" fill="black"/>
</g>
<g clip-path="url(#clip55_735_6)">
<path d="M360 192H336V216H360V192Z" fill="black"/>
</g>
<path d="M360 204V192H372C368.817 192 365.765 193.264 363.515 195.515C361.264 197.765 360 200.817 360 204Z" fill="black"/>
<path d="M384 204V192H372C375.183 192 378.235 193.264 380.485 195.515C382.736 197.765 384 200.817 384 204Z" fill="black"/>
<g clip-path="url(#clip56_735_6)">
<path d="M372 216H384V204C384 207.183 382.736 210.235 380.485 212.485C378.235 214.736 375.183 216 372 216Z" fill="black"/>
</g>
<g clip-path="url(#clip57_735_6)">
<path d="M360 204V216H372C368.817 216 365.765 214.736 363.515 212.485C361.264 210.235 360 207.183 360 204Z" fill="black"/>
</g>
<g clip-path="url(#clip58_735_6)">
<path d="M408 192H384V216H408V192Z" fill="black"/>
</g>
<g clip-path="url(#clip59_735_6)">
<path d="M432 204V216H408V192H420C423.183 192 426.235 193.264 428.485 195.515C430.736 197.765 432 200.817 432 204Z" fill="black"/>
</g>
<g clip-path="url(#clip60_735_6)">
<path d="M468 216H480V204C480 207.183 478.736 210.235 476.485 212.485C474.235 214.736 471.183 216 468 216Z" fill="black"/>
</g>
<g clip-path="url(#clip61_735_6)">
<path d="M480 204V216H504V192H492C488.817 192 485.765 193.264 483.515 195.515C481.264 197.765 480 200.817 480 204Z" fill="black"/>
</g>
<g clip-path="url(#clip62_735_6)">
<path d="M528 192H504V216H528V192Z" fill="black"/>
</g>
<g clip-path="url(#clip63_735_6)">
<path d="M528 216H540C543.183 216 546.235 214.736 548.485 212.485C550.736 210.235 552 207.183 552 204C552 200.817 550.736 197.765 548.485 195.515C546.235 193.264 543.183 192 540 192H528V216Z" fill="black"/>
</g>
<g clip-path="url(#clip64_735_6)">
<path d="M600 216V204C600 200.817 598.736 197.765 596.485 195.515C594.235 193.264 591.183 192 588 192C584.817 192 581.765 193.264 579.515 195.515C577.264 197.765 576 200.817 576 204V216H600Z" fill="black"/>
</g>
<path d="M24 228V216H12C15.1826 216 18.2348 217.264 20.4853 219.515C22.7357 221.765 24 224.817 24 228Z" fill="black"/>
<g clip-path="url(#clip65_735_6)">
<path d="M36 240H48V216H24V228C24 231.183 25.2643 234.235 27.5147 236.485C29.7652 238.736 32.8174 240 36 240Z" fill="black"/>
</g>
<g clip-path="url(#clip66_735_6)">
<path d="M72 216H48V240H72V216Z" fill="black"/>
</g>
<path d="M72 228V216H84C80.8174 216 77.7652 217.264 75.5147 219.515C73.2643 221.765 72 224.817 72 228Z" fill="black"/>
<g clip-path="url(#clip67_735_6)">
<path d="M84 240H96V228C96 231.183 94.7357 234.235 92.4853 236.485C90.2348 238.736 87.1826 240 84 240Z" fill="black"/>
</g>
<g clip-path="url(#clip68_735_6)">
<path d="M72 228V240H84C80.8174 240 77.7652 238.736 75.5147 236.485C73.2643 234.235 72 231.183 72 228Z" fill="black"/>
</g>
<g clip-path="url(#clip69_735_6)">
<path d="M120 240V228C120 224.817 118.736 221.765 116.485 219.515C114.235 217.264 111.183 216 108 216C104.817 216 101.765 217.264 99.5147 219.515C97.2643 221.765 96 224.817 96 228V240H120Z" fill="black"/>
</g>
<g clip-path="url(#clip70_735_6)">
<path d="M120 228V240H132C128.817 240 125.765 238.736 123.515 236.485C121.264 234.235 120 231.183 120 228Z" fill="black"/>
</g>
<g clip-path="url(#clip71_735_6)">
<path d="M204 240H216V216H192V228C192 231.183 193.264 234.235 195.515 236.485C197.765 238.736 200.817 240 204 240Z" fill="black"/>
</g>
<g clip-path="url(#clip72_735_6)">
<path d="M216 240H228C231.183 240 234.235 238.736 236.485 236.485C238.736 234.235 240 231.183 240 228C240 224.817 238.736 221.765 236.485 219.515C234.235 217.264 231.183 216 228 216H216V240Z" fill="black"/>
</g>
<g clip-path="url(#clip73_735_6)">
<path d="M336 228V216H324C327.183 216 330.235 217.264 332.485 219.515C334.736 221.765 336 224.817 336 228Z" fill="black"/>
</g>
<g clip-path="url(#clip74_735_6)">
<path d="M324 240H336V228C336 231.183 334.736 234.235 332.485 236.485C330.235 238.736 327.183 240 324 240Z" fill="black"/>
</g>
<g clip-path="url(#clip75_735_6)">
<path d="M360 216H336V240H360V216Z" fill="black"/>
</g>
<g clip-path="url(#clip76_735_6)">
<path d="M384 216H360V240H384V216Z" fill="black"/>
</g>
<g clip-path="url(#clip77_735_6)">
<path d="M408 216H384V240H408V216Z" fill="black"/>
</g>
<g clip-path="url(#clip78_735_6)">
<path d="M420 240H408V216H432V228C432 231.183 430.736 234.235 428.485 236.485C426.235 238.736 423.183 240 420 240Z" fill="black"/>
</g>
<g clip-path="url(#clip79_735_6)">
<path d="M480 216H468C464.817 216 461.765 217.264 459.515 219.515C457.264 221.765 456 224.817 456 228C456 231.183 457.264 234.235 459.515 236.485C461.765 238.736 464.817 240 468 240H480V216Z" fill="black"/>
</g>
<g clip-path="url(#clip80_735_6)">
<path d="M492 240H480V216H504V228C504 231.183 502.736 234.235 500.485 236.485C498.235 238.736 495.183 240 492 240Z" fill="black"/>
</g>
<path d="M504 228V216H516C512.817 216 509.765 217.264 507.515 219.515C505.264 221.765 504 224.817 504 228Z" fill="black"/>
<g clip-path="url(#clip81_735_6)">
<path d="M564 240H576V228C576 231.183 574.736 234.235 572.485 236.485C570.235 238.736 567.183 240 564 240Z" fill="black"/>
</g>
<g clip-path="url(#clip82_735_6)">
<path d="M600 216H576V240H600V216Z" fill="black"/>
</g>
<g clip-path="url(#clip83_735_6)">
<path d="M0 252C0 255.183 1.26428 258.235 3.51472 260.485C5.76515 262.736 8.8174 264 12 264C15.1826 264 18.2348 262.736 20.4853 260.485C22.7357 258.235 24 255.183 24 252C24 248.817 22.7357 245.765 20.4853 243.515C18.2348 241.264 15.1826 240 12 240C8.8174 240 5.76515 241.264 3.51472 243.515C1.26428 245.765 0 248.817 0 252Z" fill="black"/>
</g>
<g clip-path="url(#clip84_735_6)">
<path d="M48 252V240H36C39.1826 240 42.2348 241.264 44.4853 243.515C46.7357 245.765 48 248.817 48 252Z" fill="black"/>
</g>
<g clip-path="url(#clip85_735_6)">
<path d="M60 264H72V240H48V252C48 255.183 49.2643 258.235 51.5147 260.485C53.7652 262.736 56.8174 264 60 264Z" fill="black"/>
</g>
<g clip-path="url(#clip86_735_6)">
<path d="M96 240H72V264H96V240Z" fill="black"/>
</g>
<g clip-path="url(#clip87_735_6)">
<path d="M120 240H96V264H120V240Z" fill="black"/>
</g>
<g clip-path="url(#clip88_735_6)">
<path d="M144 240H120V264H144V240Z" fill="black"/>
</g>
<g clip-path="url(#clip89_735_6)">
<path d="M168 240H144V264H168V240Z" fill="black"/>
</g>
<g clip-path="url(#clip90_735_6)">
<path d="M192 252V264H168V240H180C183.183 240 186.235 241.264 188.485 243.515C190.736 245.765 192 248.817 192 252Z" fill="black"/>
</g>
<path d="M192 252V264H204C200.817 264 197.765 262.736 195.515 260.485C193.264 258.235 192 255.183 192 252Z" fill="black"/>
<path d="M300 264H312V252C312 255.183 310.736 258.235 308.485 260.485C306.235 262.736 303.183 264 300 264Z" fill="black"/>
<g clip-path="url(#clip91_735_6)">
<path d="M312 252V264H336V240H324C320.817 240 317.765 241.264 315.515 243.515C313.264 245.765 312 248.817 312 252Z" fill="black"/>
</g>
<g clip-path="url(#clip92_735_6)">
<path d="M360 240H336V264H360V240Z" fill="black"/>
</g>
<path d="M360 252V240H372C368.817 240 365.765 241.264 363.515 243.515C361.264 245.765 360 248.817 360 252Z" fill="black"/>
<path d="M360 252V264H372C368.817 264 365.765 262.736 363.515 260.485C361.264 258.235 360 255.183 360 252Z" fill="black"/>
<g clip-path="url(#clip93_735_6)">
<path d="M504 252V264H528V240H516C512.817 240 509.765 241.264 507.515 243.515C505.264 245.765 504 248.817 504 252Z" fill="black"/>
</g>
<g clip-path="url(#clip94_735_6)">
<path d="M552 240H528V264H552V240Z" fill="black"/>
</g>
<g clip-path="url(#clip95_735_6)">
<path d="M576 240H552V264H576V240Z" fill="black"/>
</g>
<g clip-path="url(#clip96_735_6)">
<path d="M600 240H576V264H600V240Z" fill="black"/>
</g>
<g clip-path="url(#clip97_735_6)">
<path d="M48 288V276C48 272.817 46.7357 269.765 44.4853 267.515C42.2348 265.264 39.1826 264 36 264C32.8174 264 29.7652 265.264 27.5147 267.515C25.2643 269.765 24 272.817 24 276L24 288H48Z" fill="black"/>
</g>
<g clip-path="url(#clip98_735_6)">
<path d="M48 276V288H60C56.8174 288 53.7652 286.736 51.5147 284.485C49.2643 282.235 48 279.183 48 276Z" fill="black"/>
</g>
<g clip-path="url(#clip99_735_6)">
<path d="M120 276V264H108C111.183 264 114.235 265.264 116.485 267.515C118.736 269.765 120 272.817 120 276Z" fill="black"/>
</g>
<g clip-path="url(#clip100_735_6)">
<path d="M144 264H120V288H144V264Z" fill="black"/>
</g>
<path d="M144 276V264H156C152.817 264 149.765 265.264 147.515 267.515C145.264 269.765 144 272.817 144 276Z" fill="black"/>
<g clip-path="url(#clip101_735_6)">
<path d="M168 276V264H156C159.183 264 162.235 265.264 164.485 267.515C166.736 269.765 168 272.817 168 276Z" fill="black"/>
</g>
<g clip-path="url(#clip102_735_6)">
<path d="M156 288H168V276C168 279.183 166.736 282.235 164.485 284.485C162.235 286.736 159.183 288 156 288Z" fill="black"/>
</g>
<path d="M144 276V288H156C152.817 288 149.765 286.736 147.515 284.485C145.264 282.235 144 279.183 144 276Z" fill="black"/>
<g clip-path="url(#clip103_735_6)">
<path d="M192 264H168V288H192V264Z" fill="black"/>
</g>
<g clip-path="url(#clip104_735_6)">
<path d="M192 288H204C207.183 288 210.235 286.736 212.485 284.485C214.736 282.235 216 279.183 216 276C216 272.817 214.736 269.765 212.485 267.515C210.235 265.264 207.183 264 204 264H192V288Z" fill="black"/>
</g>
<g clip-path="url(#clip105_735_6)">
<path d="M264 276V288H288V264H276C272.817 264 269.765 265.264 267.515 267.515C265.264 269.765 264 272.817 264 276Z" fill="black"/>
</g>
<g clip-path="url(#clip106_735_6)">
<path d="M312 264H288V288H312V264Z" fill="black"/>
</g>
<g clip-path="url(#clip107_735_6)">
<path d="M336 264H312V288H336V264Z" fill="black"/>
</g>
<g clip-path="url(#clip108_735_6)">
<path d="M360 264H336V288H360V264Z" fill="black"/>
</g>
<g clip-path="url(#clip109_735_6)">
<path d="M384 276V288H360V264H372C375.183 264 378.235 265.264 380.485 267.515C382.736 269.765 384 272.817 384 276Z" fill="black"/>
</g>
<g clip-path="url(#clip110_735_6)">
<path d="M432 264H420C416.817 264 413.765 265.264 411.515 267.515C409.264 269.765 408 272.817 408 276C408 279.183 409.264 282.235 411.515 284.485C413.765 286.736 416.817 288 420 288H432V264Z" fill="black"/>
</g>
<g clip-path="url(#clip111_735_6)">
<path d="M456 264H432V288H456V264Z" fill="black"/>
</g>
<g clip-path="url(#clip112_735_6)">
<path d="M480 276V288H456V264H468C471.183 264 474.235 265.264 476.485 267.515C478.736 269.765 480 272.817 480 276Z" fill="black"/>
</g>
<path d="M492 288H504V276C504 279.183 502.736 282.235 500.485 284.485C498.235 286.736 495.183 288 492 288Z" fill="black"/>
<path d="M480 276V288H492C488.817 288 485.765 286.736 483.515 284.485C481.264 282.235 480 279.183 480 276Z" fill="black"/>
<g clip-path="url(#clip113_735_6)">
<path d="M528 264H504V288H528V264Z" fill="black"/>
</g>
<g clip-path="url(#clip114_735_6)">
<path d="M540 288H528V264H552V276C552 279.183 550.736 282.235 548.485 284.485C546.235 286.736 543.183 288 540 288Z" fill="black"/>
</g>
<path d="M552 276V264H564C560.817 264 557.765 265.264 555.515 267.515C553.264 269.765 552 272.817 552 276Z" fill="black"/>
<g clip-path="url(#clip115_735_6)">
<path d="M576 276V264H564C567.183 264 570.235 265.264 572.485 267.515C574.736 269.765 576 272.817 576 276Z" fill="black"/>
</g>
<g clip-path="url(#clip116_735_6)">
<path d="M564 288H576V276C576 279.183 574.736 282.235 572.485 284.485C570.235 286.736 567.183 288 564 288Z" fill="black"/>
</g>
<g clip-path="url(#clip117_735_6)">
<path d="M600 264H576V288H600V264Z" fill="black"/>
</g>
<g clip-path="url(#clip118_735_6)">
<path d="M36 312H48V288H24V300C24 303.183 25.2643 306.235 27.5147 308.485C29.7652 310.736 32.8174 312 36 312Z" fill="black"/>
</g>
<g clip-path="url(#clip119_735_6)">
<path d="M72 288H48V312H72V288Z" fill="black"/>
</g>
<g clip-path="url(#clip120_735_6)">
<path d="M72 312H84C87.1826 312 90.2348 310.736 92.4853 308.485C94.7357 306.235 96 303.183 96 300C96 296.817 94.7357 293.765 92.4853 291.515C90.2348 289.264 87.1826 288 84 288H72V312Z" fill="black"/>
</g>
<path d="M108 312H120V300C120 303.183 118.736 306.235 116.485 308.485C114.235 310.736 111.183 312 108 312Z" fill="black"/>
<g clip-path="url(#clip121_735_6)">
<path d="M144 288H120V312H144V288Z" fill="black"/>
</g>
<g clip-path="url(#clip122_735_6)">
<path d="M168 288H144V312H168V288Z" fill="black"/>
</g>
<g clip-path="url(#clip123_735_6)">
<path d="M192 288H168V312H192V288Z" fill="black"/>
</g>
<path d="M192 300V288H204C200.817 288 197.765 289.264 195.515 291.515C193.264 293.765 192 296.817 192 300Z" fill="black"/>
<g clip-path="url(#clip124_735_6)">
<path d="M204 312H216V300C216 303.183 214.736 306.235 212.485 308.485C210.235 310.736 207.183 312 204 312Z" fill="black"/>
</g>
<path d="M192 300V312H204C200.817 312 197.765 310.736 195.515 308.485C193.264 306.235 192 303.183 192 300Z" fill="black"/>
<g clip-path="url(#clip125_735_6)">
<path d="M240 312V300C240 296.817 238.736 293.765 236.485 291.515C234.235 289.264 231.183 288 228 288C224.817 288 221.765 289.264 219.515 291.515C217.264 293.765 216 296.817 216 300V312H240Z" fill="black"/>
</g>
<path d="M252 312H264V300C264 303.183 262.736 306.235 260.485 308.485C258.235 310.736 255.183 312 252 312Z" fill="black"/>
<g clip-path="url(#clip126_735_6)">
<path d="M240 300V312H252C248.817 312 245.765 310.736 243.515 308.485C241.264 306.235 240 303.183 240 300Z" fill="black"/>
</g>
<g clip-path="url(#clip127_735_6)">
<path d="M288 288H264V312H288V288Z" fill="black"/>
</g>
<path d="M288 300V288H300C296.817 288 293.765 289.264 291.515 291.515C289.264 293.765 288 296.817 288 300Z" fill="black"/>
<g clip-path="url(#clip128_735_6)">
<path d="M360 300V288H348C351.183 288 354.235 289.264 356.485 291.515C358.736 293.765 360 296.817 360 300Z" fill="black"/>
</g>
<g clip-path="url(#clip129_735_6)">
<path d="M384 288H360V312H384V288Z" fill="black"/>
</g>
<g clip-path="url(#clip130_735_6)">
<path d="M384 300V312H396C392.817 312 389.765 310.736 387.515 308.485C385.264 306.235 384 303.183 384 300Z" fill="black"/>
</g>
<g clip-path="url(#clip131_735_6)">
<path d="M432 300V288H420C423.183 288 426.235 289.264 428.485 291.515C430.736 293.765 432 296.817 432 300Z" fill="black"/>
</g>
<g clip-path="url(#clip132_735_6)">
<path d="M444 312H456V288H432V300C432 303.183 433.264 306.235 435.515 308.485C437.765 310.736 440.817 312 444 312Z" fill="black"/>
</g>
<g clip-path="url(#clip133_735_6)">
<path d="M480 288H456V312H480V288Z" fill="black"/>
</g>
<g clip-path="url(#clip134_735_6)">
<path d="M504 288H480V312H504V288Z" fill="black"/>
</g>
<g clip-path="url(#clip135_735_6)">
<path d="M528 288H504V312H528V288Z" fill="black"/>
</g>
<path d="M528 300V288H540C536.817 288 533.765 289.264 531.515 291.515C529.264 293.765 528 296.817 528 300Z" fill="black"/>
<g clip-path="url(#clip136_735_6)">
<path d="M552 300V312H576V288H564C560.817 288 557.765 289.264 555.515 291.515C553.264 293.765 552 296.817 552 300Z" fill="black"/>
</g>
<g clip-path="url(#clip137_735_6)">
<path d="M600 288H576V312H600V288Z" fill="black"/>
</g>
<path d="M48 324V312H36C39.1826 312 42.2348 313.264 44.4853 315.515C46.7357 317.765 48 320.817 48 324Z" fill="black"/>
<g clip-path="url(#clip138_735_6)">
<path d="M36 336H48V324C48 327.183 46.7357 330.235 44.4853 332.485C42.2348 334.736 39.1826 336 36 336Z" fill="black"/>
</g>
<g clip-path="url(#clip139_735_6)">
<path d="M72 312H48V336H72V312Z" fill="black"/>
</g>
<path d="M72 324V312H84C80.8174 312 77.7652 313.264 75.5147 315.515C73.2643 317.765 72 320.817 72 324Z" fill="black"/>
<g clip-path="url(#clip140_735_6)">
<path d="M84 336H96V324C96 327.183 94.7357 330.235 92.4853 332.485C90.2348 334.736 87.1826 336 84 336Z" fill="black"/>
</g>
<g clip-path="url(#clip141_735_6)">
<path d="M72 324V336H84C80.8174 336 77.7652 334.736 75.5147 332.485C73.2643 330.235 72 327.183 72 324Z" fill="black"/>
</g>
<g clip-path="url(#clip142_735_6)">
<path d="M96 324V336H120V312H108C104.817 312 101.765 313.264 99.5147 315.515C97.2643 317.765 96 320.817 96 324Z" fill="black"/>
</g>
<g clip-path="url(#clip143_735_6)">
<path d="M144 312H120V336H144V312Z" fill="black"/>
</g>
<path d="M144 324V312H156C152.817 312 149.765 313.264 147.515 315.515C145.264 317.765 144 320.817 144 324Z" fill="black"/>
<g clip-path="url(#clip144_735_6)">
<path d="M168 324V312H156C159.183 312 162.235 313.264 164.485 315.515C166.736 317.765 168 320.817 168 324Z" fill="black"/>
</g>
<g clip-path="url(#clip145_735_6)">
<path d="M144 324V336H156C152.817 336 149.765 334.736 147.515 332.485C145.264 330.235 144 327.183 144 324Z" fill="black"/>
</g>
<g clip-path="url(#clip146_735_6)">
<path d="M180 336H192V312H168V324C168 327.183 169.264 330.235 171.515 332.485C173.765 334.736 176.817 336 180 336Z" fill="black"/>
</g>
<g clip-path="url(#clip147_735_6)">
<path d="M216 312H192V336H216V312Z" fill="black"/>
</g>
<g clip-path="url(#clip148_735_6)">
<path d="M240 312H216V336H240V312Z" fill="black"/>
</g>
<g clip-path="url(#clip149_735_6)">
<path d="M264 312H240V336H264V312Z" fill="black"/>
</g>
<g clip-path="url(#clip150_735_6)">
<path d="M276 336H264V312H288V324C288 327.183 286.736 330.235 284.485 332.485C282.235 334.736 279.183 336 276 336Z" fill="black"/>
</g>
<g clip-path="url(#clip151_735_6)">
<path d="M348 336H360V324C360 327.183 358.736 330.235 356.485 332.485C354.235 334.736 351.183 336 348 336Z" fill="black"/>
</g>
<g clip-path="url(#clip152_735_6)">
<path d="M384 312H360V336H384V312Z" fill="black"/>
</g>
<g clip-path="url(#clip153_735_6)">
<path d="M408 324V336H384V312H396C399.183 312 402.235 313.264 404.485 315.515C406.736 317.765 408 320.817 408 324Z" fill="black"/>
</g>
<g clip-path="url(#clip154_735_6)">
<path d="M408 324V336H420C416.817 336 413.765 334.736 411.515 332.485C409.264 330.235 408 327.183 408 324Z" fill="black"/>
</g>
<g clip-path="url(#clip155_735_6)">
<path d="M456 324V312H444C447.183 312 450.235 313.264 452.485 315.515C454.736 317.765 456 320.817 456 324Z" fill="black"/>
</g>
<g clip-path="url(#clip156_735_6)">
<path d="M480 312H456V336H480V312Z" fill="black"/>
</g>
<path d="M480 324V312H492C488.817 312 485.765 313.264 483.515 315.515C481.264 317.765 480 320.817 480 324Z" fill="black"/>
<path d="M504 324V312H492C495.183 312 498.235 313.264 500.485 315.515C502.736 317.765 504 320.817 504 324Z" fill="black"/>
<g clip-path="url(#clip157_735_6)">
<path d="M492 336H504V324C504 327.183 502.736 330.235 500.485 332.485C498.235 334.736 495.183 336 492 336Z" fill="black"/>
</g>
<g clip-path="url(#clip158_735_6)">
<path d="M480 324V336H492C488.817 336 485.765 334.736 483.515 332.485C481.264 330.235 480 327.183 480 324Z" fill="black"/>
</g>
<g clip-path="url(#clip159_735_6)">
<path d="M528 312H504V336H528V312Z" fill="black"/>
</g>
<g clip-path="url(#clip160_735_6)">
<path d="M576 312H552V336H576V312Z" fill="black"/>
</g>
<g clip-path="url(#clip161_735_6)">
<path d="M588 336H576V312H600V324C600 327.183 598.736 330.235 596.485 332.485C594.235 334.736 591.183 336 588 336Z" fill="black"/>
</g>
<g clip-path="url(#clip162_735_6)">
<path d="M48 336H36C32.8174 336 29.7652 337.264 27.5147 339.515C25.2643 341.765 24 344.817 24 348C24 351.183 25.2643 354.235 27.5147 356.485C29.7652 358.736 32.8174 360 36 360H48V336Z" fill="black"/>
</g>
<g clip-path="url(#clip163_735_6)">
<path d="M72 336H48V360H72V336Z" fill="black"/>
</g>
<g clip-path="url(#clip164_735_6)">
<path d="M96 336H72V360H96V336Z" fill="black"/>
</g>
<g clip-path="url(#clip165_735_6)">
<path d="M120 336H96V360H120V336Z" fill="black"/>
</g>
<g clip-path="url(#clip166_735_6)">
<path d="M144 336H120V360H144V336Z" fill="black"/>
</g>
<g clip-path="url(#clip167_735_6)">
<path d="M144 360H156C159.183 360 162.235 358.736 164.485 356.485C166.736 354.235 168 351.183 168 348C168 344.817 166.736 341.765 164.485 339.515C162.235 337.264 159.183 336 156 336H144V360Z" fill="black"/>
</g>
<path d="M192 348V336H180C183.183 336 186.235 337.264 188.485 339.515C190.736 341.765 192 344.817 192 348Z" fill="black"/>
<g clip-path="url(#clip168_735_6)">
<path d="M204 360H216V336H192V348C192 351.183 193.264 354.235 195.515 356.485C197.765 358.736 200.817 360 204 360Z" fill="black"/>
</g>
<g clip-path="url(#clip169_735_6)">
<path d="M240 336H216V360H240V336Z" fill="black"/>
</g>
<path d="M240 348V336H252C248.817 336 245.765 337.264 243.515 339.515C241.264 341.765 240 344.817 240 348Z" fill="black"/>
<g clip-path="url(#clip170_735_6)">
<path d="M240 348V360H252C248.817 360 245.765 358.736 243.515 356.485C241.264 354.235 240 351.183 240 348Z" fill="black"/>
</g>
<g clip-path="url(#clip171_735_6)">
<path d="M312 360V348C312 344.817 310.736 341.765 308.485 339.515C306.235 337.264 303.183 336 300 336C296.817 336 293.765 337.264 291.515 339.515C289.264 341.765 288 344.817 288 348V360H312Z" fill="black"/>
</g>
<g clip-path="url(#clip172_735_6)">
<path d="M360 336H348C344.817 336 341.765 337.264 339.515 339.515C337.264 341.765 336 344.817 336 348C336 351.183 337.264 354.235 339.515 356.485C341.765 358.736 344.817 360 348 360H360V336Z" fill="black"/>
</g>
<g clip-path="url(#clip173_735_6)">
<path d="M384 336H360V360H384V336Z" fill="black"/>
</g>
<g clip-path="url(#clip174_735_6)">
<path d="M408 336H384V360H408V336Z" fill="black"/>
</g>
<g clip-path="url(#clip175_735_6)">
<path d="M432 348V360H408V336H420C423.183 336 426.235 337.264 428.485 339.515C430.736 341.765 432 344.817 432 348Z" fill="black"/>
</g>
<g clip-path="url(#clip176_735_6)">
<path d="M468 360H480V336H456V348C456 351.183 457.264 354.235 459.515 356.485C461.765 358.736 464.817 360 468 360Z" fill="black"/>
</g>
<g clip-path="url(#clip177_735_6)">
<path d="M504 336H480V360H504V336Z" fill="black"/>
</g>
<g clip-path="url(#clip178_735_6)">
<path d="M516 360H504V336H528V348C528 351.183 526.736 354.235 524.485 356.485C522.235 358.736 519.183 360 516 360Z" fill="black"/>
</g>
<g clip-path="url(#clip179_735_6)">
<path d="M576 336H552V360H576V336Z" fill="black"/>
</g>
<path d="M576 348V336H588C584.817 336 581.765 337.264 579.515 339.515C577.264 341.765 576 344.817 576 348Z" fill="black"/>
<g clip-path="url(#clip180_735_6)">
<path d="M576 348V360H588C584.817 360 581.765 358.736 579.515 356.485C577.264 354.235 576 351.183 576 348Z" fill="black"/>
</g>
<g clip-path="url(#clip181_735_6)">
<path d="M0 372C0 375.183 1.26428 378.235 3.51472 380.485C5.76515 382.736 8.8174 384 12 384C15.1826 384 18.2348 382.736 20.4853 380.485C22.7357 378.235 24 375.183 24 372C24 368.817 22.7357 365.765 20.4853 363.515C18.2348 361.264 15.1826 360 12 360C8.8174 360 5.76515 361.264 3.51472 363.515C1.26428 365.765 0 368.817 0 372Z" fill="black"/>
</g>
<g clip-path="url(#clip182_735_6)">
<path d="M216 372V360H204C207.183 360 210.235 361.264 212.485 363.515C214.736 365.765 216 368.817 216 372Z" fill="black"/>
</g>
<g clip-path="url(#clip183_735_6)">
<path d="M228 384H240V360H216V372C216 375.183 217.264 378.235 219.515 380.485C221.765 382.736 224.817 384 228 384Z" fill="black"/>
</g>
<g clip-path="url(#clip184_735_6)">
<path d="M240 384H252C255.183 384 258.235 382.736 260.485 380.485C262.736 378.235 264 375.183 264 372C264 368.817 262.736 365.765 260.485 363.515C258.235 361.264 255.183 360 252 360H240V384Z" fill="black"/>
</g>
<g clip-path="url(#clip185_735_6)">
<path d="M288 360V372C288 375.183 289.264 378.235 291.515 380.485C293.765 382.736 296.817 384 300 384C303.183 384 306.235 382.736 308.485 380.485C310.736 378.235 312 375.183 312 372V360H288Z" fill="black"/>
</g>
<path d="M408 372V360H396C399.183 360 402.235 361.264 404.485 363.515C406.736 365.765 408 368.817 408 372Z" fill="black"/>
<path d="M396 384H408V372C408 375.183 406.736 378.235 404.485 380.485C402.235 382.736 399.183 384 396 384Z" fill="black"/>
<g clip-path="url(#clip186_735_6)">
<path d="M432 360H408V384H432V360Z" fill="black"/>
</g>
<path d="M432 372V384H444C440.817 384 437.765 382.736 435.515 380.485C433.264 378.235 432 375.183 432 372Z" fill="black"/>
<g clip-path="url(#clip187_735_6)">
<path d="M576 360H552V384H576V360Z" fill="black"/>
</g>
<g clip-path="url(#clip188_735_6)">
<path d="M576 384H588C591.183 384 594.235 382.736 596.485 380.485C598.736 378.235 600 375.183 600 372C600 368.817 598.736 365.765 596.485 363.515C594.235 361.264 591.183 360 588 360H576V384Z" fill="black"/>
</g>
<g clip-path="url(#clip189_735_6)">
<path d="M72 384H60C56.8174 384 53.7652 385.264 51.5147 387.515C49.2643 389.765 48 392.817 48 396C48 399.183 49.2643 402.235 51.5147 404.485C53.7652 406.736 56.8174 408 60 408H72V384Z" fill="black"/>
</g>
<g clip-path="url(#clip190_735_6)">
<path d="M96 384H72V408H96V384Z" fill="black"/>
</g>
<g clip-path="url(#clip191_735_6)">
<path d="M96 408H108C111.183 408 114.235 406.736 116.485 404.485C118.736 402.235 120 399.183 120 396C120 392.817 118.736 389.765 116.485 387.515C114.235 385.264 111.183 384 108 384H96V408Z" fill="black"/>
</g>
<g clip-path="url(#clip192_735_6)">
<path d="M168 384H156C152.817 384 149.765 385.264 147.515 387.515C145.264 389.765 144 392.817 144 396C144 399.183 145.264 402.235 147.515 404.485C149.765 406.736 152.817 408 156 408H168V384Z" fill="black"/>
</g>
<g clip-path="url(#clip193_735_6)">
<path d="M192 384H168V408H192V384Z" fill="black"/>
</g>
<g clip-path="url(#clip194_735_6)">
<path d="M216 396V408H192V384H204C207.183 384 210.235 385.264 212.485 387.515C214.736 389.765 216 392.817 216 396Z" fill="black"/>
</g>
<g clip-path="url(#clip195_735_6)">
<path d="M264 396C264 399.183 265.264 402.235 267.515 404.485C269.765 406.736 272.817 408 276 408C279.183 408 282.235 406.736 284.485 404.485C286.736 402.235 288 399.183 288 396C288 392.817 286.736 389.765 284.485 387.515C282.235 385.264 279.183 384 276 384C272.817 384 269.765 385.264 267.515 387.515C265.264 389.765 264 392.817 264 396Z" fill="black"/>
</g>
<path d="M372 408H384V396C384 399.183 382.736 402.235 380.485 404.485C378.235 406.736 375.183 408 372 408Z" fill="black"/>
<g clip-path="url(#clip196_735_6)">
<path d="M384 396V408H408V384H396C392.817 384 389.765 385.264 387.515 387.515C385.264 389.765 384 392.817 384 396Z" fill="black"/>
</g>
<g clip-path="url(#clip197_735_6)">
<path d="M432 384H408V408H432V384Z" fill="black"/>
</g>
<g clip-path="url(#clip198_735_6)">
<path d="M456 384H432V408H456V384Z" fill="black"/>
</g>
<g clip-path="url(#clip199_735_6)">
<path d="M480 384H456V408H480V384Z" fill="black"/>
</g>
<g clip-path="url(#clip200_735_6)">
<path d="M504 396V408H480V384H492C495.183 384 498.235 385.264 500.485 387.515C502.736 389.765 504 392.817 504 396Z" fill="black"/>
</g>
<path d="M504 396V408H516C512.817 408 509.765 406.736 507.515 404.485C505.264 402.235 504 399.183 504 396Z" fill="black"/>
<g clip-path="url(#clip201_735_6)">
<path d="M552 384V396C552 399.183 553.264 402.235 555.515 404.485C557.765 406.736 560.817 408 564 408C567.183 408 570.235 406.736 572.485 404.485C574.736 402.235 576 399.183 576 396V384H552Z" fill="black"/>
</g>
<path d="M576 396V384H588C584.817 384 581.765 385.264 579.515 387.515C577.264 389.765 576 392.817 576 396Z" fill="black"/>
<g clip-path="url(#clip202_735_6)">
<path d="M192 420V408H180C183.183 408 186.235 409.264 188.485 411.515C190.736 413.765 192 416.817 192 420Z" fill="black"/>
</g>
<g clip-path="url(#clip203_735_6)">
<path d="M192 408V420C192 423.183 193.264 426.235 195.515 428.485C197.765 430.736 200.817 432 204 432C207.183 432 210.235 430.736 212.485 428.485C214.736 426.235 216 423.183 216 420V408H192Z" fill="black"/>
</g>
<path d="M276 432H288V420C288 423.183 286.736 426.235 284.485 428.485C282.235 430.736 279.183 432 276 432Z" fill="black"/>
<g clip-path="url(#clip204_735_6)">
<path d="M288 420V432H312V408H300C296.817 408 293.765 409.264 291.515 411.515C289.264 413.765 288 416.817 288 420Z" fill="black"/>
</g>
<g clip-path="url(#clip205_735_6)">
<path d="M336 408H312V432H336V408Z" fill="black"/>
</g>
<g clip-path="url(#clip206_735_6)">
<path d="M360 408H336V432H360V408Z" fill="black"/>
</g>
<g clip-path="url(#clip207_735_6)">
<path d="M384 408H360V432H384V408Z" fill="black"/>
</g>
<g clip-path="url(#clip208_735_6)">
<path d="M408 408H384V432H408V408Z" fill="black"/>
</g>
<path d="M408 420V408H420C416.817 408 413.765 409.264 411.515 411.515C409.264 413.765 408 416.817 408 420Z" fill="black"/>
<g clip-path="url(#clip209_735_6)">
<path d="M480 420V408H468C471.183 408 474.235 409.264 476.485 411.515C478.736 413.765 480 416.817 480 420Z" fill="black"/>
</g>
<g clip-path="url(#clip210_735_6)">
<path d="M504 408H480V432H504V408Z" fill="black"/>
</g>
<g clip-path="url(#clip211_735_6)">
<path d="M528 408H504V432H528V408Z" fill="black"/>
</g>
<g clip-path="url(#clip212_735_6)">
<path d="M552 420V432H528V408H540C543.183 408 546.235 409.264 548.485 411.515C550.736 413.765 552 416.817 552 420Z" fill="black"/>
</g>
<path d="M552 420V432H564C560.817 432 557.765 430.736 555.515 428.485C553.264 426.235 552 423.183 552 420Z" fill="black"/>
<g clip-path="url(#clip213_735_6)">
<path d="M288 432H276C272.817 432 269.765 433.264 267.515 435.515C265.264 437.765 264 440.817 264 444C264 447.182 265.264 450.235 267.515 452.485C269.765 454.736 272.817 456 276 456H288V432Z" fill="black"/>
</g>
<g clip-path="url(#clip214_735_6)">
<path d="M312 432H288V456H312V432Z" fill="black"/>
</g>
<g clip-path="url(#clip215_735_6)">
<path d="M336 432H312V456H336V432Z" fill="black"/>
</g>
<g clip-path="url(#clip216_735_6)">
<path d="M360 432H336V456H360V432Z" fill="black"/>
</g>
<path d="M360 444V432H372C368.817 432 365.765 433.264 363.515 435.515C361.264 437.765 360 440.817 360 444Z" fill="black"/>
<path d="M384 444V432H372C375.183 432 378.235 433.264 380.485 435.515C382.736 437.765 384 440.817 384 444Z" fill="black"/>
<g clip-path="url(#clip217_735_6)">
<path d="M372 456H384V444C384 447.182 382.736 450.235 380.485 452.485C378.235 454.736 375.183 456 372 456Z" fill="black"/>
</g>
<g clip-path="url(#clip218_735_6)">
<path d="M360 444V456H372C368.817 456 365.765 454.736 363.515 452.485C361.264 450.235 360 447.182 360 444Z" fill="black"/>
</g>
<g clip-path="url(#clip219_735_6)">
<path d="M408 432H384V456H408V432Z" fill="black"/>
</g>
<g clip-path="url(#clip220_735_6)">
<path d="M432 444C432 447.182 433.264 450.235 435.515 452.485C437.765 454.736 440.817 456 444 456C447.183 456 450.235 454.736 452.485 452.485C454.736 450.235 456 447.182 456 444C456 440.817 454.736 437.765 452.485 435.515C450.235 433.264 447.183 432 444 432C440.817 432 437.765 433.264 435.515 435.515C433.264 437.765 432 440.817 432 444Z" fill="black"/>
</g>
<g clip-path="url(#clip221_735_6)">
<path d="M504 432H480V456H504V432Z" fill="black"/>
</g>
<path d="M504 444V432H516C512.817 432 509.765 433.264 507.515 435.515C505.264 437.765 504 440.817 504 444Z" fill="black"/>
<g clip-path="url(#clip222_735_6)">
<path d="M528 444V432H516C519.183 432 522.235 433.264 524.485 435.515C526.736 437.765 528 440.817 528 444Z" fill="black"/>
</g>
<g clip-path="url(#clip223_735_6)">
<path d="M540 456H552V432H528V444C528 447.182 529.264 450.235 531.515 452.485C533.765 454.736 536.817 456 540 456Z" fill="black"/>
</g>
<g clip-path="url(#clip224_735_6)">
<path d="M576 432H552V456H576V432Z" fill="black"/>
</g>
<g clip-path="url(#clip225_735_6)">
<path d="M600 444V456H576V432H588C591.183 432 594.235 433.264 596.485 435.515C598.736 437.765 600 440.817 600 444Z" fill="black"/>
</g>
<g clip-path="url(#clip226_735_6)">
<path d="M264 480V468C264 464.817 262.736 461.765 260.485 459.515C258.235 457.264 255.183 456 252 456C248.817 456 245.765 457.264 243.515 459.515C241.264 461.765 240 464.817 240 468V480H264Z" fill="black"/>
</g>
<g clip-path="url(#clip227_735_6)">
<path d="M288 468V456H276C279.183 456 282.235 457.264 284.485 459.515C286.736 461.765 288 464.817 288 468Z" fill="black"/>
</g>
<g clip-path="url(#clip228_735_6)">
<path d="M264 468V480H276C272.817 480 269.765 478.736 267.515 476.485C265.264 474.235 264 471.183 264 468Z" fill="black"/>
</g>
<g clip-path="url(#clip229_735_6)">
<path d="M300 480H312V456H288V468C288 471.183 289.264 474.235 291.515 476.485C293.765 478.736 296.817 480 300 480Z" fill="black"/>
</g>
<g clip-path="url(#clip230_735_6)">
<path d="M336 456H312V480H336V456Z" fill="black"/>
</g>
<g clip-path="url(#clip231_735_6)">
<path d="M360 456H336V480H360V456Z" fill="black"/>
</g>
<g clip-path="url(#clip232_735_6)">
<path d="M384 456H360V480H384V456Z" fill="black"/>
</g>
<g clip-path="url(#clip233_735_6)">
<path d="M408 456H384V480H408V456Z" fill="black"/>
</g>
<g clip-path="url(#clip234_735_6)">
<path d="M408 468V480H420C416.817 480 413.765 478.736 411.515 476.485C409.264 474.235 408 471.183 408 468Z" fill="black"/>
</g>
<path d="M468 480H480V468C480 471.183 478.736 474.235 476.485 476.485C474.235 478.736 471.183 480 468 480Z" fill="black"/>
<g clip-path="url(#clip235_735_6)">
<path d="M504 456H480V480H504V456Z" fill="black"/>
</g>
<g clip-path="url(#clip236_735_6)">
<path d="M552 468V456H540C543.183 456 546.235 457.264 548.485 459.515C550.736 461.765 552 464.817 552 468Z" fill="black"/>
</g>
<g clip-path="url(#clip237_735_6)">
<path d="M564 480H576V456H552V468C552 471.183 553.264 474.235 555.515 476.485C557.765 478.736 560.817 480 564 480Z" fill="black"/>
</g>
<g clip-path="url(#clip238_735_6)">
<path d="M600 456H576V480H600V456Z" fill="black"/>
</g>
<g clip-path="url(#clip239_735_6)">
<path d="M252 504H264V480H240V492C240 495.183 241.264 498.235 243.515 500.485C245.765 502.736 248.817 504 252 504Z" fill="black"/>
</g>
<g clip-path="url(#clip240_735_6)">
<path d="M264 504H276C279.183 504 282.235 502.736 284.485 500.485C286.736 498.235 288 495.183 288 492C288 488.817 286.736 485.765 284.485 483.515C282.235 481.264 279.183 480 276 480H264V504Z" fill="black"/>
</g>
<g clip-path="url(#clip241_735_6)">
<path d="M336 492V480H324C327.183 480 330.235 481.264 332.485 483.515C334.736 485.765 336 488.817 336 492Z" fill="black"/>
</g>
<g clip-path="url(#clip242_735_6)">
<path d="M348 504H360V480H336V492C336 495.183 337.264 498.235 339.515 500.485C341.765 502.736 344.817 504 348 504Z" fill="black"/>
</g>
<g clip-path="url(#clip243_735_6)">
<path d="M384 480H360V504H384V480Z" fill="black"/>
</g>
<g clip-path="url(#clip244_735_6)">
<path d="M408 480H384V504H408V480Z" fill="black"/>
</g>
<g clip-path="url(#clip245_735_6)">
<path d="M432 480H408V504H432V480Z" fill="black"/>
</g>
<g clip-path="url(#clip246_735_6)">
<path d="M456 480H432V504H456V480Z" fill="black"/>
</g>
<g clip-path="url(#clip247_735_6)">
<path d="M480 480H456V504H480V480Z" fill="black"/>
</g>
<g clip-path="url(#clip248_735_6)">
<path d="M504 480H480V504H504V480Z" fill="black"/>
</g>
<g clip-path="url(#clip249_735_6)">
<path d="M528 492C528 495.183 529.264 498.235 531.515 500.485C533.765 502.736 536.817 504 540 504C543.183 504 546.235 502.736 548.485 500.485C550.736 498.235 552 495.183 552 492C552 488.817 550.736 485.765 548.485 483.515C546.235 481.264 543.183 480 540 480C536.817 480 533.765 481.264 531.515 483.515C529.264 485.765 528 488.817 528 492Z" fill="black"/>
</g>
<g clip-path="url(#clip250_735_6)">
<path d="M576 492V480H564C567.183 480 570.235 481.264 572.485 483.515C574.736 485.765 576 488.817 576 492Z" fill="black"/>
</g>
<g clip-path="url(#clip251_735_6)">
<path d="M564 504H576V492C576 495.183 574.736 498.235 572.485 500.485C570.235 502.736 567.183 504 564 504Z" fill="black"/>
</g>
<g clip-path="url(#clip252_735_6)">
<path d="M600 480H576V504H600V480Z" fill="black"/>
</g>
<g clip-path="url(#clip253_735_6)">
<path d="M192 516V528H216V504H204C200.817 504 197.765 505.264 195.515 507.515C193.264 509.765 192 512.817 192 516Z" fill="black"/>
</g>
<g clip-path="url(#clip254_735_6)">
<path d="M240 516V528H216V504H228C231.183 504 234.235 505.264 236.485 507.515C238.736 509.765 240 512.817 240 516Z" fill="black"/>
</g>
<g clip-path="url(#clip255_735_6)">
<path d="M240 516V528H252C248.817 528 245.765 526.736 243.515 524.485C241.264 522.235 240 519.182 240 516Z" fill="black"/>
</g>
<g clip-path="url(#clip256_735_6)">
<path d="M288 516C288 519.182 289.264 522.235 291.515 524.485C293.765 526.736 296.817 528 300 528C303.183 528 306.235 526.736 308.485 524.485C310.736 522.235 312 519.182 312 516C312 512.817 310.736 509.765 308.485 507.515C306.235 505.264 303.183 504 300 504C296.817 504 293.765 505.264 291.515 507.515C289.264 509.765 288 512.817 288 516Z" fill="black"/>
</g>
<g clip-path="url(#clip257_735_6)">
<path d="M360 516V504H348C351.183 504 354.235 505.264 356.485 507.515C358.736 509.765 360 512.817 360 516Z" fill="black"/>
</g>
<g clip-path="url(#clip258_735_6)">
<path d="M384 504H360V528H384V504Z" fill="black"/>
</g>
<g clip-path="url(#clip259_735_6)">
<path d="M396 528H384V504H408V516C408 519.182 406.736 522.235 404.485 524.485C402.235 526.736 399.183 528 396 528Z" fill="black"/>
</g>
<path d="M408 516V504H420C416.817 504 413.765 505.264 411.515 507.515C409.264 509.765 408 512.817 408 516Z" fill="black"/>
<path d="M432 516V504H420C423.183 504 426.235 505.264 428.485 507.515C430.736 509.765 432 512.817 432 516Z" fill="black"/>
<g clip-path="url(#clip260_735_6)">
<path d="M420 528H432V516C432 519.182 430.736 522.235 428.485 524.485C426.235 526.736 423.183 528 420 528Z" fill="black"/>
</g>
<g clip-path="url(#clip261_735_6)">
<path d="M456 504H432V528H456V504Z" fill="black"/>
</g>
<path d="M456 516V504H468C464.817 504 461.765 505.264 459.515 507.515C457.264 509.765 456 512.817 456 516Z" fill="black"/>
<path d="M480 516V504H468C471.183 504 474.235 505.264 476.485 507.515C478.736 509.765 480 512.817 480 516Z" fill="black"/>
<g clip-path="url(#clip262_735_6)">
<path d="M480 504V516C480 519.182 481.264 522.235 483.515 524.485C485.765 526.736 488.817 528 492 528C495.183 528 498.235 526.736 500.485 524.485C502.736 522.235 504 519.182 504 516V504H480Z" fill="black"/>
</g>
<g clip-path="url(#clip263_735_6)">
<path d="M540 528H552V516C552 519.182 550.736 522.235 548.485 524.485C546.235 526.736 543.183 528 540 528Z" fill="black"/>
</g>
<g clip-path="url(#clip264_735_6)">
<path d="M552 516V528H576V504H564C560.817 504 557.765 505.264 555.515 507.515C553.264 509.765 552 512.817 552 516Z" fill="black"/>
</g>
<g clip-path="url(#clip265_735_6)">
<path d="M588 528H576V504H600V516C600 519.182 598.736 522.235 596.485 524.485C594.235 526.736 591.183 528 588 528Z" fill="black"/>
</g>
<g clip-path="url(#clip266_735_6)">
<path d="M216 528H192V552H216V528Z" fill="black"/>
</g>
<g clip-path="url(#clip267_735_6)">
<path d="M240 528H216V552H240V528Z" fill="black"/>
</g>
<g clip-path="url(#clip268_735_6)">
<path d="M264 528H240V552H264V528Z" fill="black"/>
</g>
<g clip-path="url(#clip269_735_6)">
<path d="M264 552H276C279.183 552 282.235 550.736 284.485 548.485C286.736 546.235 288 543.183 288 540C288 536.817 286.736 533.765 284.485 531.515C282.235 529.264 279.183 528 276 528H264V552Z" fill="black"/>
</g>
<g clip-path="url(#clip270_735_6)">
<path d="M384 528H360V552H384V528Z" fill="black"/>
</g>
<path d="M384 540V528H396C392.817 528 389.765 529.264 387.515 531.515C385.264 533.765 384 536.817 384 540Z" fill="black"/>
<g clip-path="url(#clip271_735_6)">
<path d="M408 540V552H432V528H420C416.817 528 413.765 529.264 411.515 531.515C409.264 533.765 408 536.817 408 540Z" fill="black"/>
</g>
<g clip-path="url(#clip272_735_6)">
<path d="M444 552H432V528H456V540C456 543.183 454.736 546.235 452.485 548.485C450.235 550.736 447.183 552 444 552Z" fill="black"/>
</g>
<g clip-path="url(#clip273_735_6)">
<path d="M528 528H516C512.817 528 509.765 529.264 507.515 531.515C505.264 533.765 504 536.817 504 540C504 543.183 505.264 546.235 507.515 548.485C509.765 550.736 512.817 552 516 552H528V528Z" fill="black"/>
</g>
<g clip-path="url(#clip274_735_6)">
<path d="M552 528H528V552H552V528Z" fill="black"/>
</g>
<g clip-path="url(#clip275_735_6)">
<path d="M576 528H552V552H576V528Z" fill="black"/>
</g>
<path d="M576 540V528H588C584.817 528 581.765 529.264 579.515 531.515C577.264 533.765 576 536.817 576 540Z" fill="black"/>
<g clip-path="url(#clip276_735_6)">
<path d="M576 540V552H588C584.817 552 581.765 550.736 579.515 548.485C577.264 546.235 576 543.183 576 540Z" fill="black"/>
</g>
<g clip-path="url(#clip277_735_6)">
<path d="M216 552H192V576H216V552Z" fill="black"/>
</g>
<g clip-path="url(#clip278_735_6)">
<path d="M228 576H216V552H240V564C240 567.182 238.736 570.235 236.485 572.485C234.235 574.736 231.183 576 228 576Z" fill="black"/>
</g>
<path d="M240 564V552H252C248.817 552 245.765 553.264 243.515 555.515C241.264 557.765 240 560.817 240 564Z" fill="black"/>
<g clip-path="url(#clip279_735_6)">
<path d="M384 552H360V576H384V552Z" fill="black"/>
</g>
<g clip-path="url(#clip280_735_6)">
<path d="M408 552V564C408 567.182 409.264 570.235 411.515 572.485C413.765 574.736 416.817 576 420 576C423.183 576 426.235 574.736 428.485 572.485C430.736 570.235 432 567.182 432 564V552H408Z" fill="black"/>
</g>
<path d="M432 564V552H444C440.817 552 437.765 553.264 435.515 555.515C433.264 557.765 432 560.817 432 564Z" fill="black"/>
<g clip-path="url(#clip281_735_6)">
<path d="M480 564C480 567.182 481.264 570.235 483.515 572.485C485.765 574.736 488.817 576 492 576C495.183 576 498.235 574.736 500.485 572.485C502.736 570.235 504 567.182 504 564C504 560.817 502.736 557.765 500.485 555.515C498.235 553.264 495.183 552 492 552C488.817 552 485.765 553.264 483.515 555.515C481.264 557.765 480 560.817 480 564Z" fill="black"/>
</g>
<g clip-path="url(#clip282_735_6)">
<path d="M528 564V552H516C519.183 552 522.235 553.264 524.485 555.515C526.736 557.765 528 560.817 528 564Z" fill="black"/>
</g>
<g clip-path="url(#clip283_735_6)">
<path d="M552 552H528V576H552V552Z" fill="black"/>
</g>
<g clip-path="url(#clip284_735_6)">
<path d="M576 552H552V576H576V552Z" fill="black"/>
</g>
<g clip-path="url(#clip285_735_6)">
<path d="M600 564V576H576V552H588C591.183 552 594.235 553.264 596.485 555.515C598.736 557.765 600 560.817 600 564Z" fill="black"/>
</g>
<g clip-path="url(#clip286_735_6)">
<path d="M192 576V588C192 591.183 193.264 594.235 195.515 596.485C197.765 598.736 200.817 600 204 600C207.183 600 210.235 598.736 212.485 596.485C214.736 594.235 216 591.183 216 588V576H192Z" fill="black"/>
</g>
<path d="M216 588V576H228C224.817 576 221.765 577.264 219.515 579.515C217.264 581.765 216 584.817 216 588Z" fill="black"/>
<g clip-path="url(#clip287_735_6)">
<path d="M240 588C240 591.183 241.264 594.235 243.515 596.485C245.765 598.736 248.817 600 252 600C255.183 600 258.235 598.736 260.485 596.485C262.736 594.235 264 591.183 264 588C264 584.817 262.736 581.765 260.485 579.515C258.235 577.264 255.183 576 252 576C248.817 576 245.765 577.264 243.515 579.515C241.264 581.765 240 584.817 240 588Z" fill="black"/>
</g>
<g clip-path="url(#clip288_735_6)">
<path d="M312 588C312 591.183 313.264 594.235 315.515 596.485C317.765 598.736 320.817 600 324 600C327.183 600 330.235 598.736 332.485 596.485C334.736 594.235 336 591.183 336 588C336 584.817 334.736 581.765 332.485 579.515C330.235 577.264 327.183 576 324 576C320.817 576 317.765 577.264 315.515 579.515C313.264 581.765 312 584.817 312 588Z" fill="black"/>
</g>
<g clip-path="url(#clip289_735_6)">
<path d="M360 576V588C360 591.183 361.264 594.235 363.515 596.485C365.765 598.736 368.817 600 372 600C375.183 600 378.235 598.736 380.485 596.485C382.736 594.235 384 591.183 384 588V576H360Z" fill="black"/>
</g>
<g clip-path="url(#clip290_735_6)">
<path d="M540 600H552V576H528V588C528 591.183 529.264 594.235 531.515 596.485C533.765 598.736 536.817 600 540 600Z" fill="black"/>
</g>
<g clip-path="url(#clip291_735_6)">
<path d="M576 576H552V600H576V576Z" fill="black"/>
</g>
<g clip-path="url(#clip292_735_6)">
<path d="M582 600H576V576H600V580.5C600 583.683 598.045 590.455 594 594.5C591 597.5 585.183 600 582 600Z" fill="black"/>
</g>
<g clip-path="url(#clip293_735_6)">
<path d="M26.9276 -0.0240479C9 -0.0240479 -0.0244141 9 -0.0244141 23.9999V48V71.9999V95.9999V120V144V162.912C-0.0244141 165.72 2.25559 168.024 5.08758 168.024H162.912C165.72 168.024 168.024 165.744 168.024 162.912V144V120V95.9999V71.9999V48V23.9999V5.08795C168.024 2.27995 165.744 -0.0240479 162.912 -0.0240479H26.9276ZM144 48V71.9999V95.9999V120V141.072C144 142.704 142.68 144 141.072 144H26.9276C25.2956 144 23.9996 142.68 23.9996 141.072V120V95.9999V71.9999V48V26.9279C23.9996 25.2959 25.3196 23.9999 26.9276 23.9999H141.072C142.704 23.9999 144 25.3199 144 26.9279V48Z" fill="black"/>
</g>
<path d="M120 95.9999V71.9999V53.088C120 50.28 117.72 47.976 114.888 47.976H53.0876C50.2796 47.976 47.9756 50.256 47.9756 53.088V71.9999V95.9999V114.912C47.9756 117.72 50.2556 120.024 53.0876 120.024H114.888C117.696 120.024 120 117.744 120 114.912V95.9999Z" fill="black"/>
<g clip-path="url(#clip294_735_6)">
<path d="M437.088 -0.0240479C434.28 -0.0240479 431.976 2.27995 431.976 5.08795V23.9999V47.9999V71.9999V95.9999V120V144V162.912C431.976 165.72 434.256 168.024 437.088 168.024H594.912C597.72 168.024 600.024 165.744 600.024 162.912V144V120V95.9999V71.9999V47.9999V26.9279C600.024 23.9999 600.024 -0.0240479 573.072 -0.0240479H437.088ZM576 47.9999V71.9999V95.9999V120V141.072C576 142.704 574.68 144 573.072 144H458.928C457.296 144 456 142.68 456 141.072V120V95.9999V71.9999V47.9999V26.9279C456 25.2959 457.32 23.9999 458.928 23.9999H573.072C574.704 23.9999 576 25.3199 576 26.9279V47.9999Z" fill="black"/>
</g>
<path d="M552 95.9999V71.9999V53.088C552 50.28 549.72 47.976 546.888 47.976H485.088C482.28 47.976 479.976 50.256 479.976 53.088V71.9999V95.9999V114.912C479.976 117.72 482.256 120.024 485.088 120.024H546.888C549.696 120.024 552 117.744 552 114.912V95.9999Z" fill="black"/>
<g clip-path="url(#clip295_735_6)">
<path d="M5.08758 431.976C2.27959 431.976 -0.0244141 434.28 -0.0244141 437.088V456V480V504V528V552V576C-0.0244141 594 11.5 599.5 23.9996 599.5L162.912 600.024C165.72 600.024 168.024 597.744 168.024 594.912V576V552V528V504V480V456V437.088C168.024 434.28 165.744 431.976 162.912 431.976H5.08758ZM144 480V504V528V552V573.072C144 574.704 142.68 576 141.072 576H26.9276C25.2956 576 23.9996 574.68 23.9996 573.072V552V528V504V480V458.928C23.9996 457.296 25.3196 456 26.9276 456H141.072C142.704 456 144 457.32 144 458.928V480Z" fill="black"/>
</g>
<path d="M120 528V504V485.088C120 482.28 117.72 479.976 114.888 479.976H53.0876C50.2796 479.976 47.9756 482.256 47.9756 485.088V504V528V546.912C47.9756 549.72 50.2556 552.024 53.0876 552.024H114.888C117.696 552.024 120 549.744 120 546.912V528Z" fill="black"/>
</g>
<defs>
<clipPath id="clip0_735_6">
<rect width="600" height="600" fill="white"/>
</clipPath>
<clipPath id="clip1_735_6">
<rect width="24" height="24" fill="white" transform="translate(192)"/>
</clipPath>
<clipPath id="clip2_735_6">
<rect width="24" height="24" fill="white" transform="translate(216)"/>
</clipPath>
<clipPath id="clip3_735_6">
<rect width="24" height="24" fill="white" transform="translate(336)"/>
</clipPath>
<clipPath id="clip4_735_6">
<rect width="24" height="24" fill="white" transform="translate(384)"/>
</clipPath>
<clipPath id="clip5_735_6">
<rect width="24" height="24" fill="white" transform="translate(312 24)"/>
</clipPath>
<clipPath id="clip6_735_6">
<rect width="24" height="24" fill="white" transform="translate(360 24)"/>
</clipPath>
<clipPath id="clip7_735_6">
<rect width="24" height="24" fill="white" transform="translate(384 24)"/>
</clipPath>
<clipPath id="clip8_735_6">
<rect width="24" height="24" fill="white" transform="translate(192 48)"/>
</clipPath>
<clipPath id="clip9_735_6">
<rect width="24" height="24" fill="white" transform="translate(264 48)"/>
</clipPath>
<clipPath id="clip10_735_6">
<rect width="24" height="24" fill="white" transform="translate(288 48)"/>
</clipPath>
<clipPath id="clip11_735_6">
<rect width="24" height="24" fill="white" transform="translate(312 48)"/>
</clipPath>
<clipPath id="clip12_735_6">
<rect width="24" height="24" fill="white" transform="translate(360 48)"/>
</clipPath>
<clipPath id="clip13_735_6">
<rect width="24" height="24" fill="white" transform="translate(384 48)"/>
</clipPath>
<clipPath id="clip14_735_6">
<rect width="24" height="24" fill="white" transform="translate(192 72)"/>
</clipPath>
<clipPath id="clip15_735_6">
<rect width="24" height="24" fill="white" transform="translate(216 72)"/>
</clipPath>
<clipPath id="clip16_735_6">
<rect width="24" height="24" fill="white" transform="translate(240 72)"/>
</clipPath>
<clipPath id="clip17_735_6">
<rect width="24" height="24" fill="white" transform="translate(264 72)"/>
</clipPath>
<clipPath id="clip18_735_6">
<rect width="24" height="24" fill="white" transform="translate(288 72)"/>
</clipPath>
<clipPath id="clip19_735_6">
<rect width="24" height="24" fill="white" transform="translate(312 72)"/>
</clipPath>
<clipPath id="clip20_735_6">
<rect width="24" height="24" fill="white" transform="translate(360 72)"/>
</clipPath>
<clipPath id="clip21_735_6">
<rect width="24" height="24" fill="white" transform="translate(384 72)"/>
</clipPath>
<clipPath id="clip22_735_6">
<rect width="24" height="24" fill="white" transform="translate(192 96)"/>
</clipPath>
<clipPath id="clip23_735_6">
<rect width="24" height="24" fill="white" transform="translate(216 96)"/>
</clipPath>
<clipPath id="clip24_735_6">
<rect width="24" height="24" fill="white" transform="translate(240 96)"/>
</clipPath>
<clipPath id="clip25_735_6">
<rect width="24" height="24" fill="white" transform="translate(264 96)"/>
</clipPath>
<clipPath id="clip26_735_6">
<rect width="24" height="24" fill="white" transform="translate(336 96)"/>
</clipPath>
<clipPath id="clip27_735_6">
<rect width="24" height="24" fill="white" transform="translate(384 96)"/>
</clipPath>
<clipPath id="clip28_735_6">
<rect width="24" height="24" fill="white" transform="translate(192 120)"/>
</clipPath>
<clipPath id="clip29_735_6">
<rect width="24" height="24" fill="white" transform="translate(216 120)"/>
</clipPath>
<clipPath id="clip30_735_6">
<rect width="24" height="24" fill="white" transform="translate(288 120)"/>
</clipPath>
<clipPath id="clip31_735_6">
<rect width="24" height="24" fill="white" transform="translate(336 120)"/>
</clipPath>
<clipPath id="clip32_735_6">
<rect width="24" height="24" fill="white" transform="translate(384 120)"/>
</clipPath>
<clipPath id="clip33_735_6">
<rect width="24" height="24" fill="white" transform="translate(192 144)"/>
</clipPath>
<clipPath id="clip34_735_6">
<rect width="24" height="24" fill="white" transform="translate(240 144)"/>
</clipPath>
<clipPath id="clip35_735_6">
<rect width="24" height="24" fill="white" transform="translate(288 144)"/>
</clipPath>
<clipPath id="clip36_735_6">
<rect width="24" height="24" fill="white" transform="translate(336 144)"/>
</clipPath>
<clipPath id="clip37_735_6">
<rect width="24" height="24" fill="white" transform="translate(360 144)"/>
</clipPath>
<clipPath id="clip38_735_6">
<rect width="24" height="24" fill="white" transform="translate(360 144)"/>
</clipPath>
<clipPath id="clip39_735_6">
<rect width="24" height="24" fill="white" transform="translate(384 144)"/>
</clipPath>
<clipPath id="clip40_735_6">
<rect width="24" height="24" fill="white" transform="translate(216 168)"/>
</clipPath>
<clipPath id="clip41_735_6">
<rect width="24" height="24" fill="white" transform="translate(264 168)"/>
</clipPath>
<clipPath id="clip42_735_6">
<rect width="24" height="24" fill="white" transform="translate(312 168)"/>
</clipPath>
<clipPath id="clip43_735_6">
<rect width="24" height="24" fill="white" transform="translate(336 168)"/>
</clipPath>
<clipPath id="clip44_735_6">
<rect width="24" height="24" fill="white" transform="translate(360 168)"/>
</clipPath>
<clipPath id="clip45_735_6">
<rect width="24" height="24" fill="white" transform="translate(384 168)"/>
</clipPath>
<clipPath id="clip46_735_6">
<rect width="24" height="24" fill="white" transform="translate(408 168)"/>
</clipPath>
<clipPath id="clip47_735_6">
<rect width="24" height="24" fill="white" transform="translate(0 192)"/>
</clipPath>
<clipPath id="clip48_735_6">
<rect width="24" height="24" fill="white" transform="translate(24 192)"/>
</clipPath>
<clipPath id="clip49_735_6">
<rect width="24" height="24" fill="white" transform="translate(48 192)"/>
</clipPath>
<clipPath id="clip50_735_6">
<rect width="24" height="24" fill="white" transform="translate(72 192)"/>
</clipPath>
<clipPath id="clip51_735_6">
<rect width="24" height="24" fill="white" transform="translate(144 192)"/>
</clipPath>
<clipPath id="clip52_735_6">
<rect width="24" height="24" fill="white" transform="translate(192 192)"/>
</clipPath>
<clipPath id="clip53_735_6">
<rect width="24" height="24" fill="white" transform="translate(216 192)"/>
</clipPath>
<clipPath id="clip54_735_6">
<rect width="24" height="24" fill="white" transform="translate(312 192)"/>
</clipPath>
<clipPath id="clip55_735_6">
<rect width="24" height="24" fill="white" transform="translate(336 192)"/>
</clipPath>
<clipPath id="clip56_735_6">
<rect width="24" height="24" fill="white" transform="translate(360 192)"/>
</clipPath>
<clipPath id="clip57_735_6">
<rect width="24" height="24" fill="white" transform="translate(360 192)"/>
</clipPath>
<clipPath id="clip58_735_6">
<rect width="24" height="24" fill="white" transform="translate(384 192)"/>
</clipPath>
<clipPath id="clip59_735_6">
<rect width="24" height="24" fill="white" transform="translate(408 192)"/>
</clipPath>
<clipPath id="clip60_735_6">
<rect width="24" height="24" fill="white" transform="translate(456 192)"/>
</clipPath>
<clipPath id="clip61_735_6">
<rect width="24" height="24" fill="white" transform="translate(480 192)"/>
</clipPath>
<clipPath id="clip62_735_6">
<rect width="24" height="24" fill="white" transform="translate(504 192)"/>
</clipPath>
<clipPath id="clip63_735_6">
<rect width="24" height="24" fill="white" transform="translate(528 192)"/>
</clipPath>
<clipPath id="clip64_735_6">
<rect width="24" height="24" fill="white" transform="translate(576 192)"/>
</clipPath>
<clipPath id="clip65_735_6">
<rect width="24" height="24" fill="white" transform="translate(24 216)"/>
</clipPath>
<clipPath id="clip66_735_6">
<rect width="24" height="24" fill="white" transform="translate(48 216)"/>
</clipPath>
<clipPath id="clip67_735_6">
<rect width="24" height="24" fill="white" transform="translate(72 216)"/>
</clipPath>
<clipPath id="clip68_735_6">
<rect width="24" height="24" fill="white" transform="translate(72 216)"/>
</clipPath>
<clipPath id="clip69_735_6">
<rect width="24" height="24" fill="white" transform="translate(96 216)"/>
</clipPath>
<clipPath id="clip70_735_6">
<rect width="24" height="24" fill="white" transform="translate(120 216)"/>
</clipPath>
<clipPath id="clip71_735_6">
<rect width="24" height="24" fill="white" transform="translate(192 216)"/>
</clipPath>
<clipPath id="clip72_735_6">
<rect width="24" height="24" fill="white" transform="translate(216 216)"/>
</clipPath>
<clipPath id="clip73_735_6">
<rect width="24" height="24" fill="white" transform="translate(312 216)"/>
</clipPath>
<clipPath id="clip74_735_6">
<rect width="24" height="24" fill="white" transform="translate(312 216)"/>
</clipPath>
<clipPath id="clip75_735_6">
<rect width="24" height="24" fill="white" transform="translate(336 216)"/>
</clipPath>
<clipPath id="clip76_735_6">
<rect width="24" height="24" fill="white" transform="translate(360 216)"/>
</clipPath>
<clipPath id="clip77_735_6">
<rect width="24" height="24" fill="white" transform="translate(384 216)"/>
</clipPath>
<clipPath id="clip78_735_6">
<rect width="24" height="24" fill="white" transform="translate(408 216)"/>
</clipPath>
<clipPath id="clip79_735_6">
<rect width="24" height="24" fill="white" transform="translate(456 216)"/>
</clipPath>
<clipPath id="clip80_735_6">
<rect width="24" height="24" fill="white" transform="translate(480 216)"/>
</clipPath>
<clipPath id="clip81_735_6">
<rect width="24" height="24" fill="white" transform="translate(552 216)"/>
</clipPath>
<clipPath id="clip82_735_6">
<rect width="24" height="24" fill="white" transform="translate(576 216)"/>
</clipPath>
<clipPath id="clip83_735_6">
<rect width="24" height="24" fill="white" transform="translate(0 240)"/>
</clipPath>
<clipPath id="clip84_735_6">
<rect width="24" height="24" fill="white" transform="translate(24 240)"/>
</clipPath>
<clipPath id="clip85_735_6">
<rect width="24" height="24" fill="white" transform="translate(48 240)"/>
</clipPath>
<clipPath id="clip86_735_6">
<rect width="24" height="24" fill="white" transform="translate(72 240)"/>
</clipPath>
<clipPath id="clip87_735_6">
<rect width="24" height="24" fill="white" transform="translate(96 240)"/>
</clipPath>
<clipPath id="clip88_735_6">
<rect width="24" height="24" fill="white" transform="translate(120 240)"/>
</clipPath>
<clipPath id="clip89_735_6">
<rect width="24" height="24" fill="white" transform="translate(144 240)"/>
</clipPath>
<clipPath id="clip90_735_6">
<rect width="24" height="24" fill="white" transform="translate(168 240)"/>
</clipPath>
<clipPath id="clip91_735_6">
<rect width="24" height="24" fill="white" transform="translate(312 240)"/>
</clipPath>
<clipPath id="clip92_735_6">
<rect width="24" height="24" fill="white" transform="translate(336 240)"/>
</clipPath>
<clipPath id="clip93_735_6">
<rect width="24" height="24" fill="white" transform="translate(504 240)"/>
</clipPath>
<clipPath id="clip94_735_6">
<rect width="24" height="24" fill="white" transform="translate(528 240)"/>
</clipPath>
<clipPath id="clip95_735_6">
<rect width="24" height="24" fill="white" transform="translate(552 240)"/>
</clipPath>
<clipPath id="clip96_735_6">
<rect width="24" height="24" fill="white" transform="translate(576 240)"/>
</clipPath>
<clipPath id="clip97_735_6">
<rect width="24" height="24" fill="white" transform="translate(24 264)"/>
</clipPath>
<clipPath id="clip98_735_6">
<rect width="24" height="24" fill="white" transform="translate(48 264)"/>
</clipPath>
<clipPath id="clip99_735_6">
<rect width="24" height="24" fill="white" transform="translate(96 264)"/>
</clipPath>
<clipPath id="clip100_735_6">
<rect width="24" height="24" fill="white" transform="translate(120 264)"/>
</clipPath>
<clipPath id="clip101_735_6">
<rect width="24" height="24" fill="white" transform="translate(144 264)"/>
</clipPath>
<clipPath id="clip102_735_6">
<rect width="24" height="24" fill="white" transform="translate(144 264)"/>
</clipPath>
<clipPath id="clip103_735_6">
<rect width="24" height="24" fill="white" transform="translate(168 264)"/>
</clipPath>
<clipPath id="clip104_735_6">
<rect width="24" height="24" fill="white" transform="translate(192 264)"/>
</clipPath>
<clipPath id="clip105_735_6">
<rect width="24" height="24" fill="white" transform="translate(264 264)"/>
</clipPath>
<clipPath id="clip106_735_6">
<rect width="24" height="24" fill="white" transform="translate(288 264)"/>
</clipPath>
<clipPath id="clip107_735_6">
<rect width="24" height="24" fill="white" transform="translate(312 264)"/>
</clipPath>
<clipPath id="clip108_735_6">
<rect width="24" height="24" fill="white" transform="translate(336 264)"/>
</clipPath>
<clipPath id="clip109_735_6">
<rect width="24" height="24" fill="white" transform="translate(360 264)"/>
</clipPath>
<clipPath id="clip110_735_6">
<rect width="24" height="24" fill="white" transform="translate(408 264)"/>
</clipPath>
<clipPath id="clip111_735_6">
<rect width="24" height="24" fill="white" transform="translate(432 264)"/>
</clipPath>
<clipPath id="clip112_735_6">
<rect width="24" height="24" fill="white" transform="translate(456 264)"/>
</clipPath>
<clipPath id="clip113_735_6">
<rect width="24" height="24" fill="white" transform="translate(504 264)"/>
</clipPath>
<clipPath id="clip114_735_6">
<rect width="24" height="24" fill="white" transform="translate(528 264)"/>
</clipPath>
<clipPath id="clip115_735_6">
<rect width="24" height="24" fill="white" transform="translate(552 264)"/>
</clipPath>
<clipPath id="clip116_735_6">
<rect width="24" height="24" fill="white" transform="translate(552 264)"/>
</clipPath>
<clipPath id="clip117_735_6">
<rect width="24" height="24" fill="white" transform="translate(576 264)"/>
</clipPath>
<clipPath id="clip118_735_6">
<rect width="24" height="24" fill="white" transform="translate(24 288)"/>
</clipPath>
<clipPath id="clip119_735_6">
<rect width="24" height="24" fill="white" transform="translate(48 288)"/>
</clipPath>
<clipPath id="clip120_735_6">
<rect width="24" height="24" fill="white" transform="translate(72 288)"/>
</clipPath>
<clipPath id="clip121_735_6">
<rect width="24" height="24" fill="white" transform="translate(120 288)"/>
</clipPath>
<clipPath id="clip122_735_6">
<rect width="24" height="24" fill="white" transform="translate(144 288)"/>
</clipPath>
<clipPath id="clip123_735_6">
<rect width="24" height="24" fill="white" transform="translate(168 288)"/>
</clipPath>
<clipPath id="clip124_735_6">
<rect width="24" height="24" fill="white" transform="translate(192 288)"/>
</clipPath>
<clipPath id="clip125_735_6">
<rect width="24" height="24" fill="white" transform="translate(216 288)"/>
</clipPath>
<clipPath id="clip126_735_6">
<rect width="24" height="24" fill="white" transform="translate(240 288)"/>
</clipPath>
<clipPath id="clip127_735_6">
<rect width="24" height="24" fill="white" transform="translate(264 288)"/>
</clipPath>
<clipPath id="clip128_735_6">
<rect width="24" height="24" fill="white" transform="translate(336 288)"/>
</clipPath>
<clipPath id="clip129_735_6">
<rect width="24" height="24" fill="white" transform="translate(360 288)"/>
</clipPath>
<clipPath id="clip130_735_6">
<rect width="24" height="24" fill="white" transform="translate(384 288)"/>
</clipPath>
<clipPath id="clip131_735_6">
<rect width="24" height="24" fill="white" transform="translate(408 288)"/>
</clipPath>
<clipPath id="clip132_735_6">
<rect width="24" height="24" fill="white" transform="translate(432 288)"/>
</clipPath>
<clipPath id="clip133_735_6">
<rect width="24" height="24" fill="white" transform="translate(456 288)"/>
</clipPath>
<clipPath id="clip134_735_6">
<rect width="24" height="24" fill="white" transform="translate(480 288)"/>
</clipPath>
<clipPath id="clip135_735_6">
<rect width="24" height="24" fill="white" transform="translate(504 288)"/>
</clipPath>
<clipPath id="clip136_735_6">
<rect width="24" height="24" fill="white" transform="translate(552 288)"/>
</clipPath>
<clipPath id="clip137_735_6">
<rect width="24" height="24" fill="white" transform="translate(576 288)"/>
</clipPath>
<clipPath id="clip138_735_6">
<rect width="24" height="24" fill="white" transform="translate(24 312)"/>
</clipPath>
<clipPath id="clip139_735_6">
<rect width="24" height="24" fill="white" transform="translate(48 312)"/>
</clipPath>
<clipPath id="clip140_735_6">
<rect width="24" height="24" fill="white" transform="translate(72 312)"/>
</clipPath>
<clipPath id="clip141_735_6">
<rect width="24" height="24" fill="white" transform="translate(72 312)"/>
</clipPath>
<clipPath id="clip142_735_6">
<rect width="24" height="24" fill="white" transform="translate(96 312)"/>
</clipPath>
<clipPath id="clip143_735_6">
<rect width="24" height="24" fill="white" transform="translate(120 312)"/>
</clipPath>
<clipPath id="clip144_735_6">
<rect width="24" height="24" fill="white" transform="translate(144 312)"/>
</clipPath>
<clipPath id="clip145_735_6">
<rect width="24" height="24" fill="white" transform="translate(144 312)"/>
</clipPath>
<clipPath id="clip146_735_6">
<rect width="24" height="24" fill="white" transform="translate(168 312)"/>
</clipPath>
<clipPath id="clip147_735_6">
<rect width="24" height="24" fill="white" transform="translate(192 312)"/>
</clipPath>
<clipPath id="clip148_735_6">
<rect width="24" height="24" fill="white" transform="translate(216 312)"/>
</clipPath>
<clipPath id="clip149_735_6">
<rect width="24" height="24" fill="white" transform="translate(240 312)"/>
</clipPath>
<clipPath id="clip150_735_6">
<rect width="24" height="24" fill="white" transform="translate(264 312)"/>
</clipPath>
<clipPath id="clip151_735_6">
<rect width="24" height="24" fill="white" transform="translate(336 312)"/>
</clipPath>
<clipPath id="clip152_735_6">
<rect width="24" height="24" fill="white" transform="translate(360 312)"/>
</clipPath>
<clipPath id="clip153_735_6">
<rect width="24" height="24" fill="white" transform="translate(384 312)"/>
</clipPath>
<clipPath id="clip154_735_6">
<rect width="24" height="24" fill="white" transform="translate(408 312)"/>
</clipPath>
<clipPath id="clip155_735_6">
<rect width="24" height="24" fill="white" transform="translate(432 312)"/>
</clipPath>
<clipPath id="clip156_735_6">
<rect width="24" height="24" fill="white" transform="translate(456 312)"/>
</clipPath>
<clipPath id="clip157_735_6">
<rect width="24" height="24" fill="white" transform="translate(480 312)"/>
</clipPath>
<clipPath id="clip158_735_6">
<rect width="24" height="24" fill="white" transform="translate(480 312)"/>
</clipPath>
<clipPath id="clip159_735_6">
<rect width="24" height="24" fill="white" transform="translate(504 312)"/>
</clipPath>
<clipPath id="clip160_735_6">
<rect width="24" height="24" fill="white" transform="translate(552 312)"/>
</clipPath>
<clipPath id="clip161_735_6">
<rect width="24" height="24" fill="white" transform="translate(576 312)"/>
</clipPath>
<clipPath id="clip162_735_6">
<rect width="24" height="24" fill="white" transform="translate(24 336)"/>
</clipPath>
<clipPath id="clip163_735_6">
<rect width="24" height="24" fill="white" transform="translate(48 336)"/>
</clipPath>
<clipPath id="clip164_735_6">
<rect width="24" height="24" fill="white" transform="translate(72 336)"/>
</clipPath>
<clipPath id="clip165_735_6">
<rect width="24" height="24" fill="white" transform="translate(96 336)"/>
</clipPath>
<clipPath id="clip166_735_6">
<rect width="24" height="24" fill="white" transform="translate(120 336)"/>
</clipPath>
<clipPath id="clip167_735_6">
<rect width="24" height="24" fill="white" transform="translate(144 336)"/>
</clipPath>
<clipPath id="clip168_735_6">
<rect width="24" height="24" fill="white" transform="translate(192 336)"/>
</clipPath>
<clipPath id="clip169_735_6">
<rect width="24" height="24" fill="white" transform="translate(216 336)"/>
</clipPath>
<clipPath id="clip170_735_6">
<rect width="24" height="24" fill="white" transform="translate(240 336)"/>
</clipPath>
<clipPath id="clip171_735_6">
<rect width="24" height="24" fill="white" transform="translate(288 336)"/>
</clipPath>
<clipPath id="clip172_735_6">
<rect width="24" height="24" fill="white" transform="translate(336 336)"/>
</clipPath>
<clipPath id="clip173_735_6">
<rect width="24" height="24" fill="white" transform="translate(360 336)"/>
</clipPath>
<clipPath id="clip174_735_6">
<rect width="24" height="24" fill="white" transform="translate(384 336)"/>
</clipPath>
<clipPath id="clip175_735_6">
<rect width="24" height="24" fill="white" transform="translate(408 336)"/>
</clipPath>
<clipPath id="clip176_735_6">
<rect width="24" height="24" fill="white" transform="translate(456 336)"/>
</clipPath>
<clipPath id="clip177_735_6">
<rect width="24" height="24" fill="white" transform="translate(480 336)"/>
</clipPath>
<clipPath id="clip178_735_6">
<rect width="24" height="24" fill="white" transform="translate(504 336)"/>
</clipPath>
<clipPath id="clip179_735_6">
<rect width="24" height="24" fill="white" transform="translate(552 336)"/>
</clipPath>
<clipPath id="clip180_735_6">
<rect width="24" height="24" fill="white" transform="translate(576 336)"/>
</clipPath>
<clipPath id="clip181_735_6">
<rect width="24" height="24" fill="white" transform="translate(0 360)"/>
</clipPath>
<clipPath id="clip182_735_6">
<rect width="24" height="24" fill="white" transform="translate(192 360)"/>
</clipPath>
<clipPath id="clip183_735_6">
<rect width="24" height="24" fill="white" transform="translate(216 360)"/>
</clipPath>
<clipPath id="clip184_735_6">
<rect width="24" height="24" fill="white" transform="translate(240 360)"/>
</clipPath>
<clipPath id="clip185_735_6">
<rect width="24" height="24" fill="white" transform="translate(288 360)"/>
</clipPath>
<clipPath id="clip186_735_6">
<rect width="24" height="24" fill="white" transform="translate(408 360)"/>
</clipPath>
<clipPath id="clip187_735_6">
<rect width="24" height="24" fill="white" transform="translate(552 360)"/>
</clipPath>
<clipPath id="clip188_735_6">
<rect width="24" height="24" fill="white" transform="translate(576 360)"/>
</clipPath>
<clipPath id="clip189_735_6">
<rect width="24" height="24" fill="white" transform="translate(48 384)"/>
</clipPath>
<clipPath id="clip190_735_6">
<rect width="24" height="24" fill="white" transform="translate(72 384)"/>
</clipPath>
<clipPath id="clip191_735_6">
<rect width="24" height="24" fill="white" transform="translate(96 384)"/>
</clipPath>
<clipPath id="clip192_735_6">
<rect width="24" height="24" fill="white" transform="translate(144 384)"/>
</clipPath>
<clipPath id="clip193_735_6">
<rect width="24" height="24" fill="white" transform="translate(168 384)"/>
</clipPath>
<clipPath id="clip194_735_6">
<rect width="24" height="24" fill="white" transform="translate(192 384)"/>
</clipPath>
<clipPath id="clip195_735_6">
<rect width="24" height="24" fill="white" transform="translate(264 384)"/>
</clipPath>
<clipPath id="clip196_735_6">
<rect width="24" height="24" fill="white" transform="translate(384 384)"/>
</clipPath>
<clipPath id="clip197_735_6">
<rect width="24" height="24" fill="white" transform="translate(408 384)"/>
</clipPath>
<clipPath id="clip198_735_6">
<rect width="24" height="24" fill="white" transform="translate(432 384)"/>
</clipPath>
<clipPath id="clip199_735_6">
<rect width="24" height="24" fill="white" transform="translate(456 384)"/>
</clipPath>
<clipPath id="clip200_735_6">
<rect width="24" height="24" fill="white" transform="translate(480 384)"/>
</clipPath>
<clipPath id="clip201_735_6">
<rect width="24" height="24" fill="white" transform="translate(552 384)"/>
</clipPath>
<clipPath id="clip202_735_6">
<rect width="24" height="24" fill="white" transform="translate(168 408)"/>
</clipPath>
<clipPath id="clip203_735_6">
<rect width="24" height="24" fill="white" transform="translate(192 408)"/>
</clipPath>
<clipPath id="clip204_735_6">
<rect width="24" height="24" fill="white" transform="translate(288 408)"/>
</clipPath>
<clipPath id="clip205_735_6">
<rect width="24" height="24" fill="white" transform="translate(312 408)"/>
</clipPath>
<clipPath id="clip206_735_6">
<rect width="24" height="24" fill="white" transform="translate(336 408)"/>
</clipPath>
<clipPath id="clip207_735_6">
<rect width="24" height="24" fill="white" transform="translate(360 408)"/>
</clipPath>
<clipPath id="clip208_735_6">
<rect width="24" height="24" fill="white" transform="translate(384 408)"/>
</clipPath>
<clipPath id="clip209_735_6">
<rect width="24" height="24" fill="white" transform="translate(456 408)"/>
</clipPath>
<clipPath id="clip210_735_6">
<rect width="24" height="24" fill="white" transform="translate(480 408)"/>
</clipPath>
<clipPath id="clip211_735_6">
<rect width="24" height="24" fill="white" transform="translate(504 408)"/>
</clipPath>
<clipPath id="clip212_735_6">
<rect width="24" height="24" fill="white" transform="translate(528 408)"/>
</clipPath>
<clipPath id="clip213_735_6">
<rect width="24" height="24" fill="white" transform="translate(264 432)"/>
</clipPath>
<clipPath id="clip214_735_6">
<rect width="24" height="24" fill="white" transform="translate(288 432)"/>
</clipPath>
<clipPath id="clip215_735_6">
<rect width="24" height="24" fill="white" transform="translate(312 432)"/>
</clipPath>
<clipPath id="clip216_735_6">
<rect width="24" height="24" fill="white" transform="translate(336 432)"/>
</clipPath>
<clipPath id="clip217_735_6">
<rect width="24" height="24" fill="white" transform="translate(360 432)"/>
</clipPath>
<clipPath id="clip218_735_6">
<rect width="24" height="24" fill="white" transform="translate(360 432)"/>
</clipPath>
<clipPath id="clip219_735_6">
<rect width="24" height="24" fill="white" transform="translate(384 432)"/>
</clipPath>
<clipPath id="clip220_735_6">
<rect width="24" height="24" fill="white" transform="translate(432 432)"/>
</clipPath>
<clipPath id="clip221_735_6">
<rect width="24" height="24" fill="white" transform="translate(480 432)"/>
</clipPath>
<clipPath id="clip222_735_6">
<rect width="24" height="24" fill="white" transform="translate(504 432)"/>
</clipPath>
<clipPath id="clip223_735_6">
<rect width="24" height="24" fill="white" transform="translate(528 432)"/>
</clipPath>
<clipPath id="clip224_735_6">
<rect width="24" height="24" fill="white" transform="translate(552 432)"/>
</clipPath>
<clipPath id="clip225_735_6">
<rect width="24" height="24" fill="white" transform="translate(576 432)"/>
</clipPath>
<clipPath id="clip226_735_6">
<rect width="24" height="24" fill="white" transform="translate(240 456)"/>
</clipPath>
<clipPath id="clip227_735_6">
<rect width="24" height="24" fill="white" transform="translate(264 456)"/>
</clipPath>
<clipPath id="clip228_735_6">
<rect width="24" height="24" fill="white" transform="translate(264 456)"/>
</clipPath>
<clipPath id="clip229_735_6">
<rect width="24" height="24" fill="white" transform="translate(288 456)"/>
</clipPath>
<clipPath id="clip230_735_6">
<rect width="24" height="24" fill="white" transform="translate(312 456)"/>
</clipPath>
<clipPath id="clip231_735_6">
<rect width="24" height="24" fill="white" transform="translate(336 456)"/>
</clipPath>
<clipPath id="clip232_735_6">
<rect width="24" height="24" fill="white" transform="translate(360 456)"/>
</clipPath>
<clipPath id="clip233_735_6">
<rect width="24" height="24" fill="white" transform="translate(384 456)"/>
</clipPath>
<clipPath id="clip234_735_6">
<rect width="24" height="24" fill="white" transform="translate(408 456)"/>
</clipPath>
<clipPath id="clip235_735_6">
<rect width="24" height="24" fill="white" transform="translate(480 456)"/>
</clipPath>
<clipPath id="clip236_735_6">
<rect width="24" height="24" fill="white" transform="translate(528 456)"/>
</clipPath>
<clipPath id="clip237_735_6">
<rect width="24" height="24" fill="white" transform="translate(552 456)"/>
</clipPath>
<clipPath id="clip238_735_6">
<rect width="24" height="24" fill="white" transform="translate(576 456)"/>
</clipPath>
<clipPath id="clip239_735_6">
<rect width="24" height="24" fill="white" transform="translate(240 480)"/>
</clipPath>
<clipPath id="clip240_735_6">
<rect width="24" height="24" fill="white" transform="translate(264 480)"/>
</clipPath>
<clipPath id="clip241_735_6">
<rect width="24" height="24" fill="white" transform="translate(312 480)"/>
</clipPath>
<clipPath id="clip242_735_6">
<rect width="24" height="24" fill="white" transform="translate(336 480)"/>
</clipPath>
<clipPath id="clip243_735_6">
<rect width="24" height="24" fill="white" transform="translate(360 480)"/>
</clipPath>
<clipPath id="clip244_735_6">
<rect width="24" height="24" fill="white" transform="translate(384 480)"/>
</clipPath>
<clipPath id="clip245_735_6">
<rect width="24" height="24" fill="white" transform="translate(408 480)"/>
</clipPath>
<clipPath id="clip246_735_6">
<rect width="24" height="24" fill="white" transform="translate(432 480)"/>
</clipPath>
<clipPath id="clip247_735_6">
<rect width="24" height="24" fill="white" transform="translate(456 480)"/>
</clipPath>
<clipPath id="clip248_735_6">
<rect width="24" height="24" fill="white" transform="translate(480 480)"/>
</clipPath>
<clipPath id="clip249_735_6">
<rect width="24" height="24" fill="white" transform="translate(528 480)"/>
</clipPath>
<clipPath id="clip250_735_6">
<rect width="24" height="24" fill="white" transform="translate(552 480)"/>
</clipPath>
<clipPath id="clip251_735_6">
<rect width="24" height="24" fill="white" transform="translate(552 480)"/>
</clipPath>
<clipPath id="clip252_735_6">
<rect width="24" height="24" fill="white" transform="translate(576 480)"/>
</clipPath>
<clipPath id="clip253_735_6">
<rect width="24" height="24" fill="white" transform="translate(192 504)"/>
</clipPath>
<clipPath id="clip254_735_6">
<rect width="24" height="24" fill="white" transform="translate(216 504)"/>
</clipPath>
<clipPath id="clip255_735_6">
<rect width="24" height="24" fill="white" transform="translate(240 504)"/>
</clipPath>
<clipPath id="clip256_735_6">
<rect width="24" height="24" fill="white" transform="translate(288 504)"/>
</clipPath>
<clipPath id="clip257_735_6">
<rect width="24" height="24" fill="white" transform="translate(336 504)"/>
</clipPath>
<clipPath id="clip258_735_6">
<rect width="24" height="24" fill="white" transform="translate(360 504)"/>
</clipPath>
<clipPath id="clip259_735_6">
<rect width="24" height="24" fill="white" transform="translate(384 504)"/>
</clipPath>
<clipPath id="clip260_735_6">
<rect width="24" height="24" fill="white" transform="translate(408 504)"/>
</clipPath>
<clipPath id="clip261_735_6">
<rect width="24" height="24" fill="white" transform="translate(432 504)"/>
</clipPath>
<clipPath id="clip262_735_6">
<rect width="24" height="24" fill="white" transform="translate(480 504)"/>
</clipPath>
<clipPath id="clip263_735_6">
<rect width="24" height="24" fill="white" transform="translate(528 504)"/>
</clipPath>
<clipPath id="clip264_735_6">
<rect width="24" height="24" fill="white" transform="translate(552 504)"/>
</clipPath>
<clipPath id="clip265_735_6">
<rect width="24" height="24" fill="white" transform="translate(576 504)"/>
</clipPath>
<clipPath id="clip266_735_6">
<rect width="24" height="24" fill="white" transform="translate(192 528)"/>
</clipPath>
<clipPath id="clip267_735_6">
<rect width="24" height="24" fill="white" transform="translate(216 528)"/>
</clipPath>
<clipPath id="clip268_735_6">
<rect width="24" height="24" fill="white" transform="translate(240 528)"/>
</clipPath>
<clipPath id="clip269_735_6">
<rect width="24" height="24" fill="white" transform="translate(264 528)"/>
</clipPath>
<clipPath id="clip270_735_6">
<rect width="24" height="24" fill="white" transform="translate(360 528)"/>
</clipPath>
<clipPath id="clip271_735_6">
<rect width="24" height="24" fill="white" transform="translate(408 528)"/>
</clipPath>
<clipPath id="clip272_735_6">
<rect width="24" height="24" fill="white" transform="translate(432 528)"/>
</clipPath>
<clipPath id="clip273_735_6">
<rect width="24" height="24" fill="white" transform="translate(504 528)"/>
</clipPath>
<clipPath id="clip274_735_6">
<rect width="24" height="24" fill="white" transform="translate(528 528)"/>
</clipPath>
<clipPath id="clip275_735_6">
<rect width="24" height="24" fill="white" transform="translate(552 528)"/>
</clipPath>
<clipPath id="clip276_735_6">
<rect width="24" height="24" fill="white" transform="translate(576 528)"/>
</clipPath>
<clipPath id="clip277_735_6">
<rect width="24" height="24" fill="white" transform="translate(192 552)"/>
</clipPath>
<clipPath id="clip278_735_6">
<rect width="24" height="24" fill="white" transform="translate(216 552)"/>
</clipPath>
<clipPath id="clip279_735_6">
<rect width="24" height="24" fill="white" transform="translate(360 552)"/>
</clipPath>
<clipPath id="clip280_735_6">
<rect width="24" height="24" fill="white" transform="translate(408 552)"/>
</clipPath>
<clipPath id="clip281_735_6">
<rect width="24" height="24" fill="white" transform="translate(480 552)"/>
</clipPath>
<clipPath id="clip282_735_6">
<rect width="24" height="24" fill="white" transform="translate(504 552)"/>
</clipPath>
<clipPath id="clip283_735_6">
<rect width="24" height="24" fill="white" transform="translate(528 552)"/>
</clipPath>
<clipPath id="clip284_735_6">
<rect width="24" height="24" fill="white" transform="translate(552 552)"/>
</clipPath>
<clipPath id="clip285_735_6">
<rect width="24" height="24" fill="white" transform="translate(576 552)"/>
</clipPath>
<clipPath id="clip286_735_6">
<rect width="24" height="24" fill="white" transform="translate(192 576)"/>
</clipPath>
<clipPath id="clip287_735_6">
<rect width="24" height="24" fill="white" transform="translate(240 576)"/>
</clipPath>
<clipPath id="clip288_735_6">
<rect width="24" height="24" fill="white" transform="translate(312 576)"/>
</clipPath>
<clipPath id="clip289_735_6">
<rect width="24" height="24" fill="white" transform="translate(360 576)"/>
</clipPath>
<clipPath id="clip290_735_6">
<rect width="24" height="24" fill="white" transform="translate(528 576)"/>
</clipPath>
<clipPath id="clip291_735_6">
<rect width="24" height="24" fill="white" transform="translate(552 576)"/>
</clipPath>
<clipPath id="clip292_735_6">
<rect width="24" height="24" fill="white" transform="translate(576 576)"/>
</clipPath>
<clipPath id="clip293_735_6">
<rect width="168" height="168" fill="white"/>
</clipPath>
<clipPath id="clip294_735_6">
<rect width="168" height="168" fill="white" transform="translate(432)"/>
</clipPath>
<clipPath id="clip295_735_6">
<rect width="168" height="168" fill="white" transform="translate(0 432)"/>
</clipPath>
</defs>
</svg>
