<svg width="77" height="77" viewBox="0 0 77 77" fill="none" xmlns="http://www.w3.org/2000/svg">
<rect width="77" height="77" rx="8" fill="#85D4FF"/>
<path d="M23.9324 22.8715C22.3109 22.8715 20.9228 22.3197 19.7681 21.2162C18.6134 20.1127 18.036 18.7861 18.036 17.2365C18.036 15.6869 18.6134 14.3603 19.7681 13.2568C20.9228 12.1533 22.3109 11.6015 23.9324 11.6015C25.5539 11.6015 26.9421 12.1533 28.0968 13.2568C29.2515 14.3603 29.8288 15.6869 29.8288 17.2365C29.8288 18.7861 29.2515 20.1127 28.0968 21.2162C26.9421 22.3197 25.5539 22.8715 23.9324 22.8715ZM12.1396 34.1414V30.1969C12.1396 29.3986 12.3549 28.6647 12.7853 27.9951C13.2148 27.3264 13.7857 26.8159 14.4982 26.4638C16.0214 25.7359 17.5692 25.1898 19.1416 24.8254C20.714 24.4619 22.3109 24.2802 23.9324 24.2802C25.5539 24.2802 27.1509 24.4619 28.7233 24.8254C30.2956 25.1898 31.8434 25.7359 33.3667 26.4638C34.0791 26.8159 34.6501 27.3264 35.0796 27.9951C35.51 28.6647 35.7252 29.3986 35.7252 30.1969V34.1414H12.1396Z" fill="white"/>
<path d="M17.8626 65.0338C16.2411 65.0338 14.8525 64.457 13.6968 63.3032C12.5431 62.1475 11.9662 60.7589 11.9662 59.1374V47.3446C11.9662 45.7231 12.5431 44.3345 13.6968 43.1788C14.8525 42.0251 16.2411 41.4482 17.8626 41.4482H29.6554C31.2769 41.4482 32.6655 42.0251 33.8212 43.1788C34.9749 44.3345 35.5518 45.7231 35.5518 47.3446V59.1374C35.5518 60.7589 34.9749 62.1475 33.8212 63.3032C32.6655 64.457 31.2769 65.0338 29.6554 65.0338H17.8626ZM17.8626 59.1374H29.6554V47.3446H17.8626V59.1374ZM47.3446 35.5518C45.7231 35.5518 44.3355 34.974 43.1817 33.8183C42.026 32.6646 41.4482 31.2769 41.4482 29.6554V17.8626C41.4482 16.2411 42.026 14.8525 43.1817 13.6968C44.3355 12.5431 45.7231 11.9662 47.3446 11.9662H59.1374C60.7589 11.9662 62.1475 12.5431 63.3032 13.6968C64.4569 14.8525 65.0338 16.2411 65.0338 17.8626V29.6554C65.0338 31.2769 64.4569 32.6646 63.3032 33.8183C62.1475 34.974 60.7589 35.5518 59.1374 35.5518H47.3446ZM47.3446 29.6554H59.1374V17.8626H47.3446V29.6554ZM60.6115 65.0338C60.2184 65.0338 59.8744 64.8864 59.5796 64.5916C59.2848 64.2968 59.1374 63.9528 59.1374 63.5597V60.6115C59.1374 60.2184 59.2848 59.8745 59.5796 59.5797C59.8744 59.2848 60.2184 59.1374 60.6115 59.1374H63.5597C63.9528 59.1374 64.2967 59.2848 64.5916 59.5797C64.8864 59.8745 65.0338 60.2184 65.0338 60.6115V63.5597C65.0338 63.9528 64.8864 64.2968 64.5916 64.5916C64.2967 64.8864 63.9528 65.0338 63.5597 65.0338H60.6115ZM42.9223 47.3446C42.5292 47.3446 42.1852 47.1972 41.8904 46.9024C41.5956 46.6076 41.4482 46.2636 41.4482 45.8705V42.9223C41.4482 42.5292 41.5956 42.1853 41.8904 41.8905C42.1852 41.5956 42.5292 41.4482 42.9223 41.4482H45.8705C46.2636 41.4482 46.6075 41.5956 46.9024 41.8905C47.1972 42.1853 47.3446 42.5292 47.3446 42.9223V45.8705C47.3446 46.2636 47.1972 46.6076 46.9024 46.9024C46.6075 47.1972 46.2636 47.3446 45.8705 47.3446H42.9223ZM48.8187 53.241C48.4256 53.241 48.0816 53.0936 47.7868 52.7988C47.492 52.504 47.3446 52.16 47.3446 51.7669V48.8187C47.3446 48.4256 47.492 48.0817 47.7868 47.7869C48.0816 47.492 48.4256 47.3446 48.8187 47.3446H51.7669C52.16 47.3446 52.5039 47.492 52.7988 47.7869C53.0936 48.0817 53.241 48.4256 53.241 48.8187V51.7669C53.241 52.16 53.0936 52.504 52.7988 52.7988C52.5039 53.0936 52.16 53.241 51.7669 53.241H48.8187ZM42.9223 59.1374C42.5292 59.1374 42.1852 58.99 41.8904 58.6952C41.5956 58.4004 41.4482 58.0564 41.4482 57.6633V54.7151C41.4482 54.322 41.5956 53.9781 41.8904 53.6833C42.1852 53.3884 42.5292 53.241 42.9223 53.241H45.8705C46.2636 53.241 46.6075 53.3884 46.9024 53.6833C47.1972 53.9781 47.3446 54.322 47.3446 54.7151V57.6633C47.3446 58.0564 47.1972 58.4004 46.9024 58.6952C46.6075 58.99 46.2636 59.1374 45.8705 59.1374H42.9223ZM48.8187 65.0338C48.4256 65.0338 48.0816 64.8864 47.7868 64.5916C47.492 64.2968 47.3446 63.9528 47.3446 63.5597V60.6115C47.3446 60.2184 47.492 59.8745 47.7868 59.5797C48.0816 59.2848 48.4256 59.1374 48.8187 59.1374H51.7669C52.16 59.1374 52.5039 59.2848 52.7988 59.5797C53.0936 59.8745 53.241 60.2184 53.241 60.6115V63.5597C53.241 63.9528 53.0936 64.2968 52.7988 64.5916C52.5039 64.8864 52.16 65.0338 51.7669 65.0338H48.8187ZM54.7151 59.1374C54.322 59.1374 53.978 58.99 53.6832 58.6952C53.3884 58.4004 53.241 58.0564 53.241 57.6633V54.7151C53.241 54.322 53.3884 53.9781 53.6832 53.6833C53.978 53.3884 54.322 53.241 54.7151 53.241H57.6633C58.0564 53.241 58.4003 53.3884 58.6952 53.6833C58.99 53.9781 59.1374 54.322 59.1374 54.7151V57.6633C59.1374 58.0564 58.99 58.4004 58.6952 58.6952C58.4003 58.99 58.0564 59.1374 57.6633 59.1374H54.7151ZM54.7151 47.3446C54.322 47.3446 53.978 47.1972 53.6832 46.9024C53.3884 46.6076 53.241 46.2636 53.241 45.8705V42.9223C53.241 42.5292 53.3884 42.1853 53.6832 41.8905C53.978 41.5956 54.322 41.4482 54.7151 41.4482H57.6633C58.0564 41.4482 58.4003 41.5956 58.6952 41.8905C58.99 42.1853 59.1374 42.5292 59.1374 42.9223V45.8705C59.1374 46.2636 58.99 46.6076 58.6952 46.9024C58.4003 47.1972 58.0564 47.3446 57.6633 47.3446H54.7151ZM60.6115 53.241C60.2184 53.241 59.8744 53.0936 59.5796 52.7988C59.2848 52.504 59.1374 52.16 59.1374 51.7669V48.8187C59.1374 48.4256 59.2848 48.0817 59.5796 47.7869C59.8744 47.492 60.2184 47.3446 60.6115 47.3446H63.5597C63.9528 47.3446 64.2967 47.492 64.5916 47.7869C64.8864 48.0817 65.0338 48.4256 65.0338 48.8187V51.7669C65.0338 52.16 64.8864 52.504 64.5916 52.7988C64.2967 53.0936 63.9528 53.241 63.5597 53.241H60.6115Z" fill="white"/>
</svg>
