<svg width="48" height="48" viewBox="0 0 48 48" fill="none" xmlns="http://www.w3.org/2000/svg">
<path d="M2.79378 46.2262C3.64503 47.1487 7.15128 45.54 9.91878 44.25C11.9925 43.2862 20.2913 39.8812 24.4163 38.115C25.53 37.6387 27.15 37.0162 28.3163 35.4825C29.3513 34.1175 32.0963 28.32 26.5688 22.4475C20.9588 16.485 15.18 18.1312 13.02 19.6612C11.7488 20.5612 10.7138 22.59 10.2488 23.6212C8.28378 27.9787 5.48253 35.9625 4.34253 39.1012C3.50628 41.415 1.95003 45.3112 2.79378 46.2262Z" fill="#FFC107"/>
<path d="M9.69382 24.9338C9.74632 25.5863 9.87757 26.6475 10.3276 28.6913C10.6351 30.0938 11.1376 31.5638 11.5463 32.535C12.7726 35.4563 14.4938 36.6338 16.2376 37.5788C19.2001 39.1838 21.2138 39.4838 21.2138 39.4838L18.7988 40.47C18.7988 40.47 17.3363 40.1663 15.3413 39.1838C13.4401 38.2463 11.4601 36.66 10.0126 33.555C9.38632 32.2088 9.02257 30.9038 8.81257 29.8688C8.55382 28.5863 8.51257 27.8588 8.51257 27.8588L9.69382 24.9338ZM6.72757 32.5388C6.72757 32.5388 7.02757 34.9725 9.03757 38.0438C11.3926 41.6363 14.6813 42.225 14.6813 42.225L12.4951 43.125C12.4951 43.125 10.0538 42.3788 7.73257 39.21C6.28507 37.2338 5.88007 34.8713 5.88007 34.8713L6.72757 32.5388ZM4.64632 38.3063C4.64632 38.3063 5.19382 40.4063 6.39382 41.9738C7.82257 43.845 9.64132 44.3888 9.64132 44.3888L7.96507 45.1313C7.96507 45.1313 6.69382 44.865 5.30257 43.1025C4.24507 41.7638 3.94507 40.2263 3.94507 40.2263L4.64632 38.3063Z" fill="#FF8F00"/>
<path opacity="0.44" d="M3.73499 43.6388C3.65999 43.47 3.65999 43.2788 3.73874 43.1138L13.29 23.3063L14.8612 29.2125L4.81124 43.7288C4.54124 44.1338 3.93374 44.0813 3.73499 43.6388Z" fill="#FFFDE7"/>
<path d="M15.6188 31.1962C20.0813 36.4162 25.1626 35.7637 26.8538 34.4437C28.5488 33.12 29.8876 28.5712 25.4438 23.4375C20.7863 18.06 15.5138 19.5937 14.2951 20.7562C13.0763 21.9187 11.5238 26.4075 15.6188 31.1962Z" fill="url(#paint0_linear_231_176)"/>
<path d="M30.945 33.345C29.3175 31.98 28.4513 32.2237 27.2888 32.7075C25.7888 33.33 23.43 33.7912 20.2275 32.7075L21.1913 30.3862C23.0925 31.0275 24.4688 30.7162 25.6575 30.015C27.1875 29.115 29.28 27.8812 32.535 30.615C33.8925 31.755 35.2838 32.5125 36.3038 32.1675C37.0463 31.92 37.44 30.8137 37.6388 29.9325C37.6575 29.8537 37.6875 29.6287 37.71 29.43C37.89 28.0537 38.19 25.0837 40.4025 23.565C42.7688 21.9412 45.255 21.9412 45.255 21.9412L45.705 26.4112C44.5613 26.2425 43.7663 26.475 43.095 26.8462C40.5675 28.2525 42.7688 33.6525 38.835 35.4675C35.0513 37.2262 31.9575 34.1925 30.945 33.345Z" fill="#03A9F4"/>
<path d="M17.025 27.645L15.3975 26.1863C18.3862 22.8488 17.5987 20.3962 17.025 18.6112C16.9087 18.2513 16.8 17.91 16.7287 17.5837C16.4737 16.4288 16.4212 15.4237 16.5 14.5463C15.3525 13.1175 14.8462 11.6213 14.8125 11.52C14.115 9.40875 14.64 7.35 15.8437 5.41875C18.2775 1.5 22.6837 1.5 22.6837 1.5L24.1537 5.43375C23.0362 5.38875 19.3725 5.445 18.2475 7.21875C16.8262 9.45375 17.76 10.8337 17.8275 10.9913C18.1012 10.635 18.3787 10.35 18.6262 10.1287C20.4225 8.535 21.9825 8.30625 22.9762 8.39625C24.0937 8.4975 25.1062 9.06 25.83 9.9825C26.6212 10.995 26.9475 12.3112 26.6962 13.5075C26.4525 14.6737 25.6762 15.66 24.51 16.2863C22.4737 17.3813 20.7787 17.2312 19.6425 16.8525C19.65 16.8787 19.6537 16.9087 19.6612 16.935C19.7025 17.1225 19.785 17.385 19.8825 17.6887C20.5462 19.7437 21.78 23.0063 17.025 27.645ZM19.7812 13.5712C19.9987 13.7287 20.2275 13.86 20.4637 13.9537C21.2512 14.2687 22.11 14.1637 23.085 13.6388C23.6587 13.3312 23.7262 13.0013 23.7487 12.8925C23.8162 12.5663 23.7037 12.15 23.46 11.8387C23.2462 11.565 22.9987 11.4225 22.7025 11.3925C22.14 11.3438 21.3787 11.7 20.6175 12.3787C20.2537 12.705 19.9762 13.1062 19.7812 13.5712Z" fill="#F44336"/>
<path d="M23.5387 28.2563L21.21 28.1925C21.21 28.1925 22.3162 21.945 25.8975 20.895C26.5687 20.7 27.3037 20.5013 28.0425 20.3925C28.4812 20.325 29.175 20.2238 29.5162 20.0963C29.595 19.5075 29.3475 18.7575 29.07 17.9063C28.8525 17.2463 28.6275 16.5675 28.5075 15.825C28.275 14.3775 28.6612 13.0988 29.595 12.2175C30.735 11.1488 32.5762 10.8075 34.6537 11.28C35.8387 11.55 36.7125 12.1313 37.4812 12.6413C38.58 13.3725 39.2212 13.7438 40.5637 12.84C42.1875 11.745 40.065 7.45876 38.9362 4.98376L43.1475 3.22876C43.7137 4.46626 46.4475 10.8338 44.6437 14.4675C44.0362 15.69 42.99 16.5 41.6175 16.8038C38.6325 17.4713 36.885 16.3088 35.61 15.4613C35.0062 15.06 34.4775 14.745 33.9037 14.58C29.9175 13.4438 35.4825 19.3088 32.8762 21.945C31.3125 23.5238 27.4912 23.94 27.2437 24C24.7837 24.5925 23.5387 28.2563 23.5387 28.2563Z" fill="#F48FB1"/>
<path d="M16.4963 14.5463C16.4251 15.3713 16.3913 15.8625 16.6051 16.935C17.6363 17.6925 19.8826 17.6925 19.8826 17.6925C19.7851 17.3888 19.6988 17.1263 19.6613 16.9388C19.6538 16.9125 19.6501 16.8825 19.6426 16.8563C17.3588 15.7163 16.4963 14.5463 16.4963 14.5463Z" fill="#C92B27"/>
<path d="M11.8238 18.24L7.94629 16.3388L9.87754 13.5488L12.9188 15.5625L11.8238 18.24Z" fill="#FFC107"/>
<path d="M6.10864 12.975C4.12864 12.7088 2.11114 11.0288 1.88989 10.8375L3.83614 8.55377C4.42489 9.05252 5.67364 9.88877 6.50989 10.0013L6.10864 12.975Z" fill="#FB8C00"/>
<path d="M9.60366 7.97624L6.75366 7.04249C7.07991 6.04499 7.16616 4.96874 6.99741 3.92999L9.95991 3.45374C10.2037 4.96124 10.0799 6.52499 9.60366 7.97624Z" fill="#03A9F4"/>
<path d="M27.4023 5.7469L30.333 5.10565L31.1793 8.97415L28.2487 9.6154L27.4023 5.7469Z" fill="#FB8C00"/>
<path d="M34.6726 6.66373L32.6101 4.48498C33.6901 3.46123 33.9376 2.12248 33.9376 2.10748L36.9001 2.59123C36.8626 2.82748 36.4839 4.94998 34.6726 6.66373Z" fill="#FFC107"/>
<path d="M35.8179 18.2175L38.438 17.3985L39.3327 20.262L36.7126 21.081L35.8179 18.2175Z" fill="#FB8C00"/>
<path d="M36.5813 42.3863L33.6 42.0338C33.7275 40.9725 32.9363 39.6713 32.7188 39.3825L35.1188 37.5825C35.2988 37.8188 36.8625 39.9825 36.5813 42.3863Z" fill="#F44336"/>
<path d="M45.1387 38.5837C44.0175 38.415 42.87 38.3475 41.7375 38.3887L41.6362 35.3887C42.9525 35.3437 44.2837 35.4187 45.585 35.6175L45.1387 38.5837Z" fill="#FB8C00"/>
<path d="M41.1052 42.7132L43.2127 40.5784L46.1134 43.4426L44.0058 45.5771L41.1052 42.7132Z" fill="#F48FB1"/>
<path d="M34.9137 23.7502L37.0812 26.2286L34.6028 28.3961L32.4353 25.9177L34.9137 23.7502Z" fill="#F44336"/>
<defs>
<linearGradient id="paint0_linear_231_176" x1="27.8941" y1="23.1896" x2="16.7315" y2="29.8871" gradientUnits="userSpaceOnUse">
<stop offset="0.024" stop-color="#8F4700"/>
<stop offset="1" stop-color="#703E2D"/>
</linearGradient>
</defs>
</svg>
